<?xml version="1.0" encoding="UTF-8"?>
<svg width="16px" height="16px" viewBox="0 0 16 16" version="1.1" xmlns="http://www.w3.org/2000/svg" xmlns:xlink="http://www.w3.org/1999/xlink">
    <title>291105E5-1226-436E-9F59-8BE6BD40142D</title>
    <g id="02_구매옵션" stroke="none" stroke-width="1" fill="none" fill-rule="evenodd">
        <g id="06_상품카테고리_02_상품상세_02_구매옵션_01_일반상품_06_방송중구매가능" transform="translate(-1538.000000, -246.000000)">
            <g id="[contents]" transform="translate(360.000000, 189.000000)">
                <g id="product_detail" transform="translate(620.000000, 51.000000)">
                    <g id="h28/-small-/alarm_nor" transform="translate(500.000000, 0.000000)">
                        <g id="Group-5" transform="translate(8.000000, 4.000000)">
                            <g id="icon_16-/alarm/on" transform="translate(50.000000, 2.000000)">
                                <g transform="translate(2.713855, 2.091858)">
                                    <path d="M0.923483384,4.33850478 C0.921857567,3.18375731 1.38516117,2.07614712 2.21053237,1.26158382 C3.03590358,0.447020522 4.15503827,-0.00708619092 5.31946819,0 C7.7250905,0.0178186243 9.64929085,2.00071354 9.64929085,4.39296854 L9.64929085,4.82056497 C9.64929085,6.97872612 10.1046099,8.2310763 10.5056363,8.91555416 C10.5935658,9.0644183 10.5945583,9.24853438 10.5082388,9.39832226 C10.4219194,9.54811014 10.2614528,9.64072519 10.0874817,9.64116682 L0.484804564,9.64116682 C0.310812669,9.64072286 0.15033115,9.54808466 0.0640199628,9.39826828 C-0.0222912247,9.2484519 -0.0212654671,9.06431155 0.0667095123,8.91544992 C0.467950485,8.23094916 0.923480346,6.97861645 0.923480346,4.82056497 L0.923483384,4.33850478 Z" id="Path" stroke="#F50D87" fill="#F50D87" stroke-linecap="round" stroke-linejoin="round"></path>
                                    <path d="M3.34170083,9.66320386 L3.34170083,10.1098211 C3.34170083,11.0964608 4.21225826,11.8962903 5.28614528,11.8962903 C6.36003229,11.8962903 7.23058972,11.0964608 7.23058972,10.1098211 L7.23058972,9.66320386" id="Path" stroke="#F50D87" fill="#F50D87" stroke-linecap="round" stroke-linejoin="round"></path>
                                    <rect id="Rectangle" fill="#FFFFFF" x="2.28614528" y="10.1381421" width="6" height="1"></rect>
                                </g>
                                <path d="M12.9921888,3 C13.958385,3.20506513 14.7164225,3.9690977 14.9300475,4.92950811" id="Path" stroke="#F50D87" stroke-linecap="round" stroke-linejoin="round" transform="translate(13.961118, 3.964754) rotate(13.000000) translate(-13.961118, -3.964754) "></path>
                                <path d="M1,3 C1.96619615,3.20506513 2.72423367,3.9690977 2.93785862,4.92950811" id="Path" stroke="#F50D87" stroke-linecap="round" stroke-linejoin="round" transform="translate(1.968929, 3.964754) scale(-1, 1) rotate(13.000000) translate(-1.968929, -3.964754) "></path>
                            </g>
                        </g>
                    </g>
                </g>
            </g>
        </g>
    </g>
</svg>