<?xml version="1.0" encoding="UTF-8"?>
<svg width="100px" height="100px" viewBox="0 0 100 100" version="1.1" xmlns="http://www.w3.org/2000/svg" xmlns:xlink="http://www.w3.org/1999/xlink">
    <title>Icon/controls/play</title>
    <g id="01_상단케이스" stroke="none" stroke-width="1" fill="none" fill-rule="evenodd">
        <g id="06_상품카테고리_02_상품상세_01_상단케이스_01_일반" transform="translate(-590.000000, -470.000000)">
            <g id="[contents]" transform="translate(360.000000, 189.000000)">
                <g id="thumbnail" transform="translate(0.000000, 51.000000)">
                    <g id="Icon/controls/play" transform="translate(230.000000, 230.000000)">
                        <circle id="Oval" fill-opacity="0.4" fill="#000000" cx="50" cy="50" r="50"></circle>
                        <path d="M42.168591,38.0387269 C43.2357836,37.6387518 43.5378882,37.7653644 43.8577248,37.9652557 L43.8577248,37.9652557 L61.0823025,48.7302611 C61.642525,49.0803886 62.0144806,49.5142695 62.0144806,49.9997491 C62.0144806,50.4848537 61.6428624,50.9185262 61.0822773,51.2689034 L61.0822773,51.2689034 L43.8576996,62.0346201 C43.5388199,62.2339266 43.2374026,62.3600647 42.9584117,62.3979016 C42.0528541,61.7013115 42,61.3779738 42,61.0007252 L42,38.9992748 C42,38.6208596 42.0528044,38.2966746 42.168591,38.0387269 Z" id="Shape-1" stroke="#FFFFFF" stroke-width="2"></path>
                    </g>
                </g>
            </g>
        </g>
    </g>
</svg>