<?xml version="1.0" encoding="UTF-8"?>
<svg width="16px" height="16px" viewBox="0 0 16 16" version="1.1" xmlns="http://www.w3.org/2000/svg" xmlns:xlink="http://www.w3.org/1999/xlink">
    <title>0D408714-7AF9-4638-AF33-EDACC3440D28</title>
    <g id="02_구매옵션" stroke="none" stroke-width="1" fill="none" fill-rule="evenodd" stroke-linecap="round" stroke-linejoin="round">
        <g id="06_상품카테고리_02_상품상세_99_혜택확인_툴팁" transform="translate(-1538.000000, -246.000000)" stroke="#000000">
            <g id="[contents]" transform="translate(360.000000, 189.000000)">
                <g id="product_detail" transform="translate(620.000000, 51.000000)">
                    <g id="h28/-small-/alarm_nor" transform="translate(500.000000, 0.000000)">
                        <g id="Group-5" transform="translate(8.000000, 4.000000)">
                            <g id="icon_16-/alarm/nor" transform="translate(50.000000, 2.000000)">
                                <g transform="translate(2.666667, 2.000000)" id="Path">
                                    <path d="M0.970671441,4.43036265 C0.969045624,3.27561518 1.43234923,2.16800499 2.25772043,1.35344169 C3.08309163,0.538878395 4.20222632,0.0847716817 5.36665625,0.0918578726 C7.77227856,0.109676497 9.69647891,2.09257141 9.69647891,4.48482642 L9.69647891,4.91242284 C9.69647891,7.07058399 10.1517979,8.32293417 10.5528244,9.00741203 C10.6407538,9.15627617 10.6417463,9.34039225 10.5554269,9.49018013 C10.4691074,9.63996801 10.3086408,9.73258306 10.1346698,9.73302469 L0.531992622,9.73302469 C0.358000726,9.73258073 0.197519207,9.63994253 0.11120802,9.49012615 C0.0248968324,9.34030977 0.02592259,9.15616942 0.113897569,9.00730779 C0.515138542,8.32280703 0.970668403,7.07047432 0.970668403,4.91242284 L0.970671441,4.43036265 Z"></path>
                                    <path d="M3.38888889,9.75506173 L3.38888889,10.201679 C3.38888889,11.1883187 4.25944632,11.9881481 5.33333333,11.9881481 C6.40722035,11.9881481 7.27777778,11.1883187 7.27777778,10.201679 L7.27777778,9.75506173"></path>
                                </g>
                            </g>
                        </g>
                    </g>
                </g>
            </g>
        </g>
    </g>
</svg>