<?xml version="1.0" encoding="UTF-8"?>
<svg width="16px" height="16px" viewBox="0 0 16 16" version="1.1" xmlns="http://www.w3.org/2000/svg" xmlns:xlink="http://www.w3.org/1999/xlink">
    <title>35CE5207-49BC-4DAA-9BFB-EE517A0B0F67</title>
    <g id="01_상단케이스" stroke="none" stroke-width="1" fill="none" fill-rule="evenodd">
        <g id="06_상품카테고리_02_상품상세_01_상단케이스_01_일반" transform="translate(-1218.000000, -389.000000)">
            <g id="[contents]" transform="translate(360.000000, 189.000000)">
                <g id="product_detail" transform="translate(620.000000, 52.000000)">
                    <g id="가격" transform="translate(0.000000, 126.000000)">
                        <g id="tooltip" transform="translate(238.000000, 22.000000)">
                            <circle id="Oval" stroke="#CCCCCC" fill="#FFFFFF" cx="8" cy="8" r="7.5"></circle>
                            <path d="M8.36914062,9.59570312 L8.36914062,9.26171875 C8.36914062,8.66992188 8.5859375,8.35351562 9.34179688,7.90820312 C10.1152344,7.4453125 10.5722656,6.80664062 10.5722656,5.90429688 L10.5722656,5.8984375 C10.5722656,4.63867188 9.5234375,3.72460938 7.98242188,3.72460938 C6.28320312,3.72460938 5.40429688,4.73242188 5.328125,5.9921875 L5.32226562,6.0625 L6.53515625,6.0625 L6.54101562,6.00976562 C6.60546875,5.29492188 7.109375,4.80273438 7.91796875,4.80273438 C8.71484375,4.80273438 9.2421875,5.28320312 9.2421875,5.95117188 L9.2421875,5.95703125 C9.2421875,6.5546875 8.99023438,6.89453125 8.28125,7.32226562 C7.47851562,7.80273438 7.1328125,8.33007812 7.15039062,9.12695312 L7.15625,9.59570312 L8.36914062,9.59570312 Z M7.77148438,12.3144531 C8.2109375,12.3144531 8.54492188,11.9804688 8.54492188,11.5527344 C8.54492188,11.125 8.2109375,10.796875 7.77148438,10.796875 C7.34375,10.796875 7.00390625,11.125 7.00390625,11.5527344 C7.00390625,11.9804688 7.34375,12.3144531 7.77148438,12.3144531 Z" id="?" fill="#444444" fill-rule="nonzero"></path>
                        </g>
                    </g>
                </g>
            </g>
        </g>
    </g>
</svg>