<svg xmlns="http://www.w3.org/2000/svg" width="24" height="24" viewBox="0 0 24 24">
    <g fill="none" fill-rule="evenodd">
        <g>
            <g>
                <g>
                    <g>
                        <g>
                            <g>
                                <g>
                                    <g fill="#F50D87" stroke="#F50D87" stroke-linecap="round" stroke-linejoin="round" stroke-width="1.1">
                                        <path d="M10.846 14.495v.67c0 1.48-1.306 2.68-2.917 2.68-1.61 0-2.916-1.2-2.916-2.68h0v-.67h5.833zM7.979 0c3.609.027 6.495 3.001 6.495 6.59v.641c0 3.237.683 5.116 1.284 6.142.132.224.134.5.004.725-.13.224-.37.363-.63.364H.726c-.26 0-.502-.14-.631-.364-.13-.225-.128-.501.004-.725.602-1.026 1.285-2.905 1.285-6.142v-.723c-.002-1.732.693-3.394 1.93-4.616C4.555.671 6.234-.01 7.98 0z" transform="translate(-935 -1612) translate(0 173) translate(400 1226) translate(34 82) translate(490 16) translate(0 104) translate(13 14) translate(2.07 .138)"/>
                                    </g>
                                    <path stroke="#F50D87" stroke-linecap="round" stroke-linejoin="round" stroke-width="1.1" d="M17.242.807c.895.417 1.462 1.332 1.454 2.316M2.696.807c-.895.417-1.462 1.332-1.454 2.316" transform="translate(-935 -1612) translate(0 173) translate(400 1226) translate(34 82) translate(490 16) translate(0 104) translate(13 14)"/>
                                    <path fill="#FFF" d="M6 15.15H14V16.25H6z" transform="translate(-935 -1612) translate(0 173) translate(400 1226) translate(34 82) translate(490 16) translate(0 104) translate(13 14)"/>
                                </g>
                            </g>
                        </g>
                    </g>
                </g>
            </g>
        </g>
    </g>
</svg>
