<?xml version="1.0" encoding="UTF-8"?>
<svg width="16px" height="16px" viewBox="0 0 16 16" version="1.1" xmlns="http://www.w3.org/2000/svg" xmlns:xlink="http://www.w3.org/1999/xlink">
    <title>D6067364-D9AA-4A9D-828B-F23193FC5E82</title>
    <g id="02_검색결과" stroke="none" stroke-width="1" fill="none" fill-rule="evenodd">
        <g id="02_홈메인_03_검색_02_검색결과_05_포토,동영상후기_02_상세_02_복수이미지" transform="translate(-1017.000000, -827.000000)">
            <g id="[popup]" transform="translate(437.000000, 322.000000)">
                <g id="h28/-small-/like_sel" transform="translate(538.000000, 499.000000)">
                    <g id="Group-5" transform="translate(8.000000, 4.000000)">
                        <g id="Group" transform="translate(34.000000, 2.000000)">
                            <polygon id="Path" points="0 0 16 0 16 16 0 16"></polygon>
                            <path d="M4.66666667,7.33333333 L4.66666667,12.6666667 C4.66666667,13.0348565 4.36818983,13.3333333 4,13.3333333 L2.66666667,13.3333333 C2.29847683,13.3333333 2,13.0348565 2,12.6666667 L2,8 C2,7.63181017 2.29847683,7.33333333 2.66666667,7.33333333 L4.66666667,7.33333333 C6.139426,7.33333333 7.33333333,6.139426 7.33333333,4.66666667 L7.33333333,4 C7.33333333,3.26362033 7.930287,2.66666667 8.66666667,2.66666667 C9.40304633,2.66666667 10,3.26362033 10,4 L10,7.33333333 L12,7.33333333 C12.7363797,7.33333333 13.3333333,7.930287 13.3333333,8.66666667 L12.6666667,12 C12.4697075,12.8401727 11.9261162,13.3837639 11.3333333,13.3333333 L6.66666667,13.3333333 C5.56209717,13.3333333 4.66666667,12.4379028 4.66666667,11.3333333" id="Path" stroke="#F50D87" stroke-linecap="round" stroke-linejoin="round"></path>
                        </g>
                    </g>
                </g>
            </g>
        </g>
    </g>
</svg>