<?xml version="1.0" encoding="UTF-8"?>
<svg width="16px" height="16px" viewBox="0 0 16 16" version="1.1" xmlns="http://www.w3.org/2000/svg" xmlns:xlink="http://www.w3.org/1999/xlink">
    <title>88A85F83-EDB4-4632-AB66-9DE4AAFEC091</title>
    <g id="04_딜상품" stroke="none" stroke-width="1" fill="none" fill-rule="evenodd">
        <g id="06_상품카테고리_02_상품상세_04_딜상품_04_Q&amp;A_02_드롭다운시" transform="translate(-480.000000, -1521.000000)">
            <g id="[contents]" transform="translate(338.000000, 189.000000)">
                <g id="02_하단" transform="translate(22.000000, 1082.000000)">
                    <g id="input/dropdown/open" transform="translate(32.000000, 101.000000)">
                        <g id="01" transform="translate(16.000000, 103.000000)">
                            <g id="Q&amp;A" transform="translate(72.000000, 44.000000)">
                                <g id="icon" transform="translate(0.000000, 2.000000)">
                                    <polygon id="Path" points="0 0 16 0 16 16 0 16"></polygon>
                                    <g id="Group-3" transform="translate(2.625000, 3.000000)" stroke="#CCCCCC" stroke-linecap="round" stroke-linejoin="round">
                                        <path d="M8.8817842e-16,11 L8.8817842e-16,2.0625 C8.8817842e-16,0.923412703 0.923412703,8.8817842e-16 2.0625,8.8817842e-16 L8.9375,8.8817842e-16 C10.0765873,8.8817842e-16 11,0.923412703 11,2.0625 L11,6.1875 C11,7.3265873 10.0765873,8.25 8.9375,8.25 L2.75,8.25 L8.8817842e-16,11" id="Path"></path>
                                        <line x1="3" y1="2.5" x2="8" y2="2.5" id="Path"></line>
                                        <line x1="3.14285714" y1="5.5" x2="7.14285714" y2="5.5" id="Path"></line>
                                    </g>
                                </g>
                            </g>
                        </g>
                    </g>
                </g>
            </g>
        </g>
    </g>
</svg>