<?xml version="1.0" encoding="UTF-8"?>
<svg width="32px" height="32px" viewBox="0 0 32 32" version="1.1" xmlns="http://www.w3.org/2000/svg" xmlns:xlink="http://www.w3.org/1999/xlink">
    <title>AFB5A0F2-3EB4-4A0F-B933-F8D233E69163</title>
    <g id="01_상단케이스" stroke="none" stroke-width="1" fill="none" fill-rule="evenodd" stroke-linecap="round">
        <g id="06_상품카테고리_02_상품상세_01_상단케이스_02_상품평-없는경우" transform="translate(-1528.000000, -417.000000)" stroke="#000000" stroke-width="1.3">
            <g id="[contents]" transform="translate(360.000000, 189.000000)">
                <g id="product_detail" transform="translate(620.000000, 51.000000)">
                    <g id="버튼_찜/공유" transform="translate(490.000000, 177.000000)">
                        <g id="share" transform="translate(58.000000, 0.000000)">
                            <g id="icon_32_share_nor" transform="translate(7.000000, 5.500000)">
                                <g id="Group-2" transform="translate(7.375000, 0.375000)">
                                    <path d="M11.3908073,3.86612237 C6.43894905,3.86699077 2.25315472,7.18510347 0.890807347,11.7411224" id="Path" transform="translate(6.140807, 7.803622) rotate(-9.000000) translate(-6.140807, -7.803622) "></path>
                                    <line x1="5.76583811" y1="0" x2="11.5408381" y2="2.835" id="Line"></line>
                                    <line x1="11.5408381" y1="2.835" x2="8.70583811" y2="8.61" id="Line"></line>
                                </g>
                                <path d="M17,12.2693748 L17,17.625 C17,18.7295695 16.1045695,19.625 15,19.625 L2.375,19.625 C1.2704305,19.625 0.375,18.7295695 0.375,17.625 L0.375,5 C0.375,3.8954305 1.2704305,3 2.375,3 L8.6875,3 L8.6875,3" id="Path-2"></path>
                            </g>
                        </g>
                    </g>
                </g>
            </g>
        </g>
    </g>
</svg>