<?xml version="1.0" encoding="UTF-8"?>
<svg width="24px" height="24px" viewBox="0 0 24 24" version="1.1" xmlns="http://www.w3.org/2000/svg" xmlns:xlink="http://www.w3.org/1999/xlink">
    <title>icon_24_cash</title>
    <g id="02_구매옵션" stroke="none" stroke-width="1" fill="none" fill-rule="evenodd">
        <g id="06_상품카테고리_02_상품상세_02_구매옵션_01_일반상품_04_옵션상품_02" transform="translate(-980.000000, -608.000000)">
            <g id="[contents]" transform="translate(360.000000, 189.000000)">
                <g id="product_detail" transform="translate(620.000000, 51.000000)">
                    <g id="혜택안내" transform="translate(0.000000, 268.000000)">
                        <g id="2" transform="translate(0.000000, 82.000000)">
                            <g id="icon_24-/product/coupon" transform="translate(0.000000, 18.000000)">
                                <g id="icon_24_cash" transform="translate(2.500000, 2.500000)">
                                    <circle id="Oval" stroke="#000000" stroke-width="1.1" fill="#FFFFFF" cx="9.5" cy="9.5" r="8.95"></circle>
                                    <path d="M6.87890625,9.58398438 C8.0390625,9.58398438 8.7421875,8.74609375 8.7421875,7.40429688 L8.7421875,7.3984375 C8.7421875,6.05664062 8.0390625,5.21875 6.87890625,5.21875 C5.71289062,5.21875 5.00390625,6.05664062 5.00390625,7.3984375 L5.00390625,7.40429688 C5.00390625,8.74609375 5.71289062,9.58398438 6.87890625,9.58398438 Z M7.5703125,13.75 L12.9375,5.29492188 L11.765625,5.29492188 L6.38671875,13.75 L7.5703125,13.75 Z M6.87890625,8.70507812 C6.36914062,8.70507812 6.08203125,8.23632812 6.08203125,7.40429688 L6.08203125,7.3984375 C6.08203125,6.56640625 6.36914062,6.09765625 6.87890625,6.09765625 C7.3828125,6.09765625 7.6640625,6.56640625 7.6640625,7.3984375 L7.6640625,7.40429688 C7.6640625,8.23632812 7.3828125,8.70507812 6.87890625,8.70507812 Z M12.4511719,13.8261719 C13.6113281,13.8261719 14.3203125,12.9882812 14.3203125,11.640625 L14.3203125,11.6347656 C14.3203125,10.2988281 13.6113281,9.4609375 12.4511719,9.4609375 C11.2910156,9.4609375 10.5820312,10.2988281 10.5820312,11.6347656 L10.5820312,11.640625 C10.5820312,12.9882812 11.2910156,13.8261719 12.4511719,13.8261719 Z M12.4511719,12.9472656 C11.9414062,12.9472656 11.6542969,12.4785156 11.6542969,11.6464844 L11.6542969,11.640625 C11.6542969,10.8085938 11.9414062,10.3398438 12.4511719,10.3398438 C12.9550781,10.3398438 13.2421875,10.8085938 13.2421875,11.640625 L13.2421875,11.6464844 C13.2421875,12.4785156 12.9550781,12.9472656 12.4511719,12.9472656 Z" id="%" fill="#000000" fill-rule="nonzero"></path>
                                </g>
                            </g>
                        </g>
                    </g>
                </g>
            </g>
        </g>
    </g>
</svg>