<svg xmlns="http://www.w3.org/2000/svg" width="16" height="16" viewBox="0 0 16 16">
    <g fill="none" fill-rule="evenodd" stroke-linecap="round" stroke-linejoin="round">
        <g stroke="#000">
            <g>
                <g>
                    <g>
                        <g>
                            <g>
                                <g>
                                    <g transform="translate(-505 -2155) translate(338 189) translate(22 1046) translate(32 154) translate(0 704) translate(2 60) translate(111 2) translate(2.5 2)">
                                        <path d="M1.5 4h8c.828 0 1.5.672 1.5 1.5v5c0 .828-.672 1.5-1.5 1.5h-8C.672 12 0 11.328 0 10.5v-5C0 4.672.672 4 1.5 4z"/>
                                        <circle cx="5.5" cy="8" r="1"/>
                                        <path d="M2.5 4V3c0-1.657 1.343-3 3-3s3 1.343 3 3v1"/>
                                    </g>
                                </g>
                            </g>
                        </g>
                    </g>
                </g>
            </g>
        </g>
    </g>
</svg>
