<?xml version="1.0" encoding="UTF-8"?>
<svg width="36px" height="36px" viewBox="0 0 36 36" version="1.1" xmlns="http://www.w3.org/2000/svg" xmlns:xlink="http://www.w3.org/1999/xlink">
    <title>AC8C289B-14C6-4155-A036-64FF21BE98EC</title>
    <g id="04_딜상품" stroke="none" stroke-width="1" fill="none" fill-rule="evenodd">
        <g id="06_상품카테고리_02_상품상세_04_딜상품_01_상세설명_01" transform="translate(-601.000000, -1390.000000)">
            <g id="[contents]" transform="translate(338.000000, 189.000000)">
                <g id="02_하단" transform="translate(22.000000, 1082.000000)">
                    <g id="상품클릭시-더-자세한정보" transform="translate(32.000000, 101.000000)">
                        <g id="icon" transform="translate(207.000000, 15.000000)">
                            <rect id="Rectangle" x="2.28086616" y="3.21320344" width="34" height="34"></rect>
                            <g id="hand" transform="translate(21.213203, 21.213203) rotate(-45.000000) translate(-21.213203, -21.213203) translate(6.213203, 6.213203)">
                                <rect id="Rectangle" x="0" y="0" width="30" height="30"></rect>
                                <path d="M23.5676627,11.5 C24.1199475,11.5 24.6199475,11.7238576 24.9818763,12.0857864 C25.3438051,12.4477153 25.5676627,12.9477153 25.5676627,13.5 L25.5676627,13.5 L25.5676627,20.5 C25.5676627,21.0522847 25.3438051,21.5522847 24.9818763,21.9142136 C24.6199475,22.2761424 24.1199475,22.5 23.5676627,22.5 C23.015378,22.5 22.515378,22.2761424 22.1534492,21.9142136 C21.7915203,21.5522847 21.5676627,21.0522847 21.5676627,20.5 L21.5676627,20.5 L21.5676627,13.5 C21.5676627,12.9477153 21.7915203,12.4477153 22.1534492,12.0857864 C22.515378,11.7238576 23.015378,11.5 23.5676627,11.5 Z" id="Rectangle" stroke="#000000" fill="#FFFFFF"></path>
                                <path d="M19.5676627,9.5 C20.1199475,9.5 20.6199475,9.72385763 20.9818763,10.0857864 C21.3438051,10.4477153 21.5676627,10.9477153 21.5676627,11.5 L21.5676627,11.5 L21.5676627,20.5 C21.5676627,21.0522847 21.3438051,21.5522847 20.9818763,21.9142136 C20.6199475,22.2761424 20.1199475,22.5 19.5676627,22.5 C19.015378,22.5 18.515378,22.2761424 18.1534492,21.9142136 C17.7915203,21.5522847 17.5676627,21.0522847 17.5676627,20.5 L17.5676627,20.5 L17.5676627,11.5 C17.5676627,10.9477153 17.7915203,10.4477153 18.1534492,10.0857864 C18.515378,9.72385763 19.015378,9.5 19.5676627,9.5 Z" id="Rectangle-Copy" stroke="#000000" fill="#FFFFFF"></path>
                                <path d="M15.5676627,7.5 C16.1199475,7.5 16.6199475,7.72385763 16.9818763,8.08578644 C17.3438051,8.44771525 17.5676627,8.94771525 17.5676627,9.5 L17.5676627,9.5 L17.5676627,17.5 C17.5676627,18.0522847 17.3438051,18.5522847 16.9818763,18.9142136 C16.6199475,19.2761424 16.1199475,19.5 15.5676627,19.5 C15.015378,19.5 14.515378,19.2761424 14.1534492,18.9142136 C13.7915203,18.5522847 13.5676627,18.0522847 13.5676627,17.5 L13.5676627,17.5 L13.5676627,9.5 C13.5676627,8.94771525 13.7915203,8.44771525 14.1534492,8.08578644 C14.515378,7.72385763 15.015378,7.5 15.5676627,7.5 Z" id="Rectangle-Copy" stroke="#000000" fill="#FFFFFF"></path>
                                <rect id="Rectangle-Copy" stroke="#000000" fill="#FFFFFF" x="9.56766272" y="1.5" width="4" height="16" rx="2"></rect>
                                <path d="M5.22259203,12.1612986 L5.38836056,12.1662587 C5.8294357,12.1988405 6.25909298,12.3859915 6.59036645,12.7212877 L6.59036645,12.7212877 L10.0724821,16.2456877 L25.5676627,14.5574356 L25.5676627,22 C25.5676627,23.5187831 24.9520543,24.8937831 23.95675,25.8890873 C22.9614458,26.8843915 21.5864458,27.5 20.0676627,27.5 L20.0676627,27.5 L11.8280614,27.5 C11.4466105,27.5 11.0838031,27.4143362 10.7588608,27.2603421 C10.1489342,27.0369332 9.65513654,26.6271472 9.35419509,26.052925 L9.35419509,26.052925 L3.5619501,15.0008221 C3.34025666,14.5778119 3.28826399,14.1056309 3.38717818,13.6675209 C3.48609238,13.2294108 3.73591344,12.8253718 4.11784749,12.5386454 C4.49479241,12.2556645 4.94728542,12.133677 5.38836056,12.1662587 Z" id="Combined-Shape" stroke="#000000" fill="#FFFFFF"></path>
                                <rect id="Rectangle" fill="#FFFFFF" x="10.0676627" y="14" width="15" height="7"></rect>
                                <path d="M13.5676627,5 C13.8438051,5 14.0676627,5.22385763 14.0676627,5.5 L14.0676627,16.5 C14.0676627,16.7761424 13.8438051,17 13.5676627,17 C13.2915203,17 13.0676627,16.7761424 13.0676627,16.5 L13.0676627,5.5 C13.0676627,5.22385763 13.2915203,5 13.5676627,5 Z" id="Rectangle" fill="#000000"></path>
                                <path d="M17.5676627,11 C17.8438051,11 18.0676627,11.2238576 18.0676627,11.5 L18.0676627,16.5 C18.0676627,16.7761424 17.8438051,17 17.5676627,17 C17.2915203,17 17.0676627,16.7761424 17.0676627,16.5 L17.0676627,11.5 C17.0676627,11.2238576 17.2915203,11 17.5676627,11 Z" id="Rectangle" fill="#000000"></path>
                                <path d="M21.5676627,11 C21.8438051,11 22.0676627,11.2238576 22.0676627,11.5 L22.0676627,16.5 C22.0676627,16.7761424 21.8438051,17 21.5676627,17 C21.2915203,17 21.0676627,16.7761424 21.0676627,16.5 L21.0676627,11.5 C21.0676627,11.2238576 21.2915203,11 21.5676627,11 Z" id="Rectangle" fill="#000000"></path>
                            </g>
                            <rect id="Rectangle" fill="#000000" x="7.99659491" y="9" width="1" height="2"></rect>
                            <rect id="Rectangle" fill="#000000" x="3.99659491" y="13" width="2" height="1"></rect>
                        </g>
                    </g>
                </g>
            </g>
        </g>
    </g>
</svg>