<?xml version="1.0" encoding="UTF-8"?>
<svg width="24px" height="24px" viewBox="0 0 24 24" version="1.1" xmlns="http://www.w3.org/2000/svg" xmlns:xlink="http://www.w3.org/1999/xlink">
    <title>D0C2E31A-A849-43AC-ACC6-2FA3D127A39B</title>
    <g id="01_상단케이스" stroke="none" stroke-width="1" fill="none" fill-rule="evenodd" stroke-linecap="round" stroke-linejoin="round">
        <g id="06_상품카테고리_02_상품상세_01_상단케이스_02_상품평-없는경우" transform="translate(-980.000000, -492.000000)" stroke="#000000">
            <g id="[contents]" transform="translate(360.000000, 189.000000)">
                <g id="product_detail" transform="translate(620.000000, 51.000000)">
                    <g id="혜택안내" transform="translate(0.000000, 233.000000)">
                        <g id="icon_24-/product/delivery" transform="translate(0.000000, 19.000000)">
                            <g id="icon_24_delivery_icon" transform="translate(3.000000, 5.000000)">
                                <circle id="Oval" cx="4.62875" cy="12.27625" r="2.0125"></circle>
                                <circle id="Oval" cx="14.69125" cy="12.27625" r="2.0125"></circle>
                                <path d="M2.62576614,12.3269253 L2.12264114,12.3269253 C1.28903634,12.3269253 0.613266139,11.6511551 0.613266139,10.8175503 L0.613266139,1.76130031 C0.613266139,0.92769552 1.28903634,0.251925314 2.12264114,0.251925314 L9.16639114,0.251925314 C9.99999593,0.251925314 10.6757661,0.92769552 10.6757661,1.76130031 L10.6757661,12.3269253 L10.6757661,12.3269253 M6.65076614,12.3269253 L12.6882661,12.3269253 M16.7132661,12.3269253 L17.2163911,12.3269253 C18.0499959,12.3269253 18.7257661,11.6511551 18.7257661,10.8175503 L18.7257661,7.42145656 C18.7257661,6.79625297 18.2189385,6.28942531 17.5937349,6.28942531 L10.6757661,6.28942531 L10.6757661,6.28942531 M10.6757661,1.25817531 L14.7847516,1.25817531 C15.3509314,1.25817531 15.8694949,1.57503019 16.1278385,2.07883386 L18.6145729,6.92829029 L18.6145729,6.92829029" id="Shape"></path>
                            </g>
                        </g>
                    </g>
                </g>
            </g>
        </g>
    </g>
</svg>