<svg xmlns="http://www.w3.org/2000/svg" xmlns:xlink="http://www.w3.org/1999/xlink" width="170" height="40" viewBox="0 0 170 40">
    <defs>
        <filter id="u4gfjwwrla" width="108.6%" height="145.1%" x="-4.3%" y="-29%" filterUnits="objectBoundingBox">
            <feOffset dy="-2" in="SourceAlpha" result="shadowOffsetOuter1"/>
            <feGaussianBlur in="shadowOffsetOuter1" result="shadowBlurOuter1" stdDeviation="2"/>
            <feComposite in="shadowBlurOuter1" in2="SourceAlpha" operator="out" result="shadowBlurOuter1"/>
            <feColorMatrix in="shadowBlurOuter1" values="0 0 0 0 0 0 0 0 0 0 0 0 0 0 0 0 0 0 0.06 0"/>
        </filter>
        <path id="nraikrat2b" d="M160 0c1.105 0 2 .895 2 2v24c0 1.105-.895 2-2 2H83.399l-1.542 2.57c-.063.106-.145.2-.241.274l-.102.07c-.473.284-1.087.13-1.371-.343L78.6 28H2c-1.105 0-2-.895-2-2V2C0 .895.895 0 2 0h158z"/>
    </defs>
    <g fill="none" fill-rule="evenodd">
        <g>
            <g>
                <g>
                    <g transform="translate(-2 -57) translate(2 57) translate(4 2.943) matrix(1 0 0 -1 0 31.056)">
                        <use fill="#000" filter="url(#u4gfjwwrla)" xlink:href="#nraikrat2b"/>
                        <path fill="#FFF2F7" stroke="#C80064" stroke-linejoin="square" stroke-opacity=".3" d="M160 .5c.414 0 .79.168 1.06.44.272.27.44.646.44 1.06h0v24c0 .414-.168.79-.44 1.06-.27.272-.646.44-1.06.44h0-76.884l-1.637 2.73c-.226.164-.42.255-.592.265h0L78.882 27.5H2c-.414 0-.79-.168-1.06-.44C.667 26.79.5 26.415.5 26h0V2c0-.414.168-.79.44-1.06C1.21.667 1.585.5 2 .5h0z"/>
                    </g>
                    <path fill="#C80064" fill-rule="nonzero" d="M26.176 18.013v-2.844h1.847v-.863h-1.847v-3.352h-.946v7.059h.946zm-8.887-.35c.605-.338 1.187-.804 1.746-1.399.558-.594.95-1.156 1.174-1.685.22.461.62.967 1.2 1.517.58.55 1.138.97 1.675 1.257l.623-.692c-.838-.355-1.559-.908-2.162-1.657s-.904-1.532-.904-2.348v-1.283h-.908v1.283c0 .867-.298 1.7-.895 2.5s-1.344 1.418-2.24 1.854l.691.654zm5.104 5.435c1.278 0 2.263-.22 2.954-.66.692-.44 1.038-1.014 1.038-1.72 0-.703-.347-1.274-1.04-1.712-.695-.438-1.679-.657-2.952-.657-1.27 0-2.252.22-2.946.66-.694.44-1.04 1.01-1.04 1.708 0 .703.345 1.275 1.037 1.717.692.442 1.675.664 2.949.664zm0-.807c-.944 0-1.676-.144-2.197-.431-.52-.288-.78-.669-.78-1.143 0-.465.259-.842.777-1.13.519-.287 1.252-.431 2.2-.431.956 0 1.694.145 2.215.434.52.29.78.666.78 1.127 0 .47-.26.85-.78 1.14-.52.29-1.259.434-2.215.434zM37.557 12.11v-.845h-8.582v.845h8.582zm.152 3.485v-.82h-1.828l.114-2.22h-.933l-.133 2.22h-3.326l-.134-2.22h-.933l.114 2.22h-1.828v.82h8.887zm-.635 7.242v-3.885h-3.326v-1.421h5.199v-.845H27.584v.845h5.2v1.421h-3.327v3.885h7.617zm-.933-.831h-5.75v-2.21h5.75v2.21zm12.625 1.193V10.954h-.952V23.2h.952zm-6.36-3.091c.935 0 1.691-.374 2.269-1.12.578-.747.867-1.766.867-3.057 0-1.3-.288-2.319-.864-3.06-.575-.74-1.333-1.11-2.272-1.11-.944 0-1.7.37-2.266 1.11-.567.741-.85 1.76-.85 3.06 0 1.282.286 2.299.86 3.05.573.751 1.325 1.127 2.256 1.127zm0-.844c-.643 0-1.17-.306-1.58-.918-.411-.611-.617-1.416-.617-2.415 0-1.003.204-1.808.61-2.415.406-.608.935-.911 1.587-.911.656 0 1.186.302 1.59.908.404.605.606 1.41.606 2.418 0 .994-.206 1.799-.619 2.412-.412.614-.938.92-1.577.92zm19.956-1.886v-6.41h-.952v2.627h-2.108c-.114-.745-.456-1.347-1.025-1.806-.57-.459-1.258-.689-2.066-.689-.91 0-1.653.283-2.228.848-.576.565-.863 1.26-.863 2.085 0 .834.29 1.532.87 2.095.579.563 1.32.844 2.22.844.813 0 1.506-.23 2.08-.689.573-.459.915-1.078 1.025-1.856h2.095v2.951h.952zm-6.151-1.212c-.648 0-1.17-.199-1.565-.597-.395-.398-.593-.91-.593-1.536 0-.614.2-1.12.6-1.517.4-.398.919-.597 1.558-.597.647 0 1.171.2 1.571.597.4.398.6.903.6 1.517 0 .626-.198 1.138-.594 1.536-.395.398-.921.597-1.577.597zm6.462 6.747v-.844h-6.894v-1.238h6.557v-2.78h-7.49v.832h6.551v1.13h-6.55v2.9h7.826zm10.01.286v-6.487h2.12v-.844h-2.12v-4.914h-.946V23.2h.946zm-2.94-3.599v-7.566h-5.782V19.6h5.783zm-.932-.832h-3.898v-5.903h3.898v5.903zm17.505-1.015v-2.965h1.848v-.856h-1.848v-2.978h-.945v6.799h.945zm-8.55-1.168c3.826 0 6.092-.095 6.798-.286l-.114-.819c-.884.174-2.518.26-4.9.26h-.838v-4.29h-.946v5.135zm8.55 6.328v-4.481h-7.433v4.481h7.433zm-.933-.844h-5.567v-2.793h5.567v2.793zm12.39 1.13V10.954h-.945V23.2h.945zm-9.191-2.818c.69-.55 1.32-1.22 1.892-2.01.57-.789.937-1.496 1.098-2.123.16.589.516 1.25 1.066 1.987.55.737 1.196 1.395 1.936 1.974l.654-.73c-.931-.558-1.695-1.364-2.291-2.418-.597-1.054-.895-2.122-.895-3.206v-.99h2.754v-.844H88.36v.844h2.73v1.028c0 1.092-.295 2.171-.883 3.238-.588 1.066-1.367 1.932-2.336 2.596l.711.654zm22.317-3.51V14.4h1.848v-.844h-1.848v-2.603h-.945v5.916h.945zm-6.043-.026c.915 0 1.661-.27 2.241-.812.58-.542.87-1.221.87-2.038 0-.821-.29-1.5-.87-2.038-.58-.537-1.326-.806-2.24-.806-.919 0-1.666.269-2.241.806-.576.538-.864 1.217-.864 2.038 0 .82.287 1.501.86 2.04.574.54 1.322.81 2.244.81zm0-.819c-.651 0-1.174-.185-1.567-.555-.394-.37-.59-.862-.59-1.476 0-.605.196-1.094.59-1.466.393-.373.916-.559 1.567-.559.652 0 1.175.186 1.568.559.394.372.59.86.59 1.466 0 .614-.196 1.106-.59 1.476-.393.37-.916.555-1.568.555zm7.059 3.079v-.832h-2.558v-1.288h-.952v1.288h-2.546v.832h6.056zm-9.23 3.656c1.44 0 2.618-.044 3.536-.133l-.038-.806c-.757.08-1.61.12-2.558.12v-3.98h-.94v4.8zm6.202.216c.766 0 1.37-.153 1.81-.46.44-.307.66-.717.66-1.229 0-.507-.223-.916-.667-1.225-.444-.309-1.045-.463-1.803-.463-.757 0-1.358.154-1.803.463-.444.31-.666.718-.666 1.225 0 .512.22.922.66 1.229.44.307 1.043.46 1.81.46zm0-.75c-.495 0-.879-.088-1.152-.266-.273-.177-.41-.402-.41-.673 0-.266.138-.486.413-.66.275-.173.658-.26 1.15-.26.49 0 .873.089 1.148.267.275.177.413.395.413.653 0 .267-.137.49-.41.67-.273.18-.657.27-1.152.27zm13-4.449v-2.704h1.847v-.857h-1.847v-3.263h-.946v6.824h.946zm-6.043-.596c.918 0 1.668-.277 2.25-.829.582-.552.873-1.256.873-2.11 0-.847-.29-1.546-.87-2.098-.58-.553-1.33-.829-2.253-.829s-1.67.277-2.244.832c-.574.554-.86 1.252-.86 2.095 0 .846.289 1.547.866 2.104.578.556 1.324.835 2.238.835zm0-.807c-.643 0-1.164-.197-1.562-.593-.398-.396-.596-.909-.596-1.54 0-.622.198-1.13.596-1.526.398-.396.919-.594 1.562-.594.647 0 1.17.2 1.57.6.4.4.6.907.6 1.52 0 .627-.2 1.139-.6 1.537-.4.397-.923.596-1.57.596zm2.304 6.513c.453-.254.898-.618 1.336-1.092.438-.474.742-.92.911-1.34.165.382.464.803.898 1.264.434.461.875.813 1.324 1.054l.704-.667c-.723-.266-1.318-.717-1.783-1.352-.466-.635-.699-1.322-.699-2.063v-.38h-.926v.38c0 .732-.22 1.419-.66 2.06-.44.641-1.044 1.15-1.81 1.527l.705.609zm-4.526-.013c.457-.27.907-.652 1.349-1.145.442-.493.754-.964.936-1.413.263.55.787 1.077 1.574 1.58l.692-.621c-.516-.178-.949-.499-1.298-.962-.349-.463-.523-1.004-.523-1.622v-.368h-.934v.368c0 .72-.232 1.399-.698 2.038-.465.639-1.075 1.15-1.828 1.536l.73.61zm19.734.324V10.954h-.945v4.526h-2.266c-.068-1.172-.381-2.083-.94-2.732-.559-.65-1.272-.975-2.14-.975-.943 0-1.697.367-2.262 1.102-.565.734-.847 1.753-.847 3.056 0 1.29.285 2.307.856 3.05.572.743 1.323 1.114 2.254 1.114.863 0 1.577-.325 2.142-.974.565-.65.882-1.582.95-2.796h2.253v6.874h.945zm-6.29-3.948c-.643 0-1.166-.3-1.568-.902-.402-.6-.603-1.407-.603-2.418 0-1.016.198-1.822.594-2.418.395-.597.921-.895 1.577-.895.652 0 1.176.298 1.574.895.398.596.597 1.402.597 2.418 0 .994-.203 1.796-.61 2.406-.406.61-.926.914-1.561.914zm18.592 2.012v-.844h-2.94v-3.123c.919-.533 1.378-1.333 1.378-2.4 0-.96-.376-1.706-1.13-2.237-.753-.531-1.75-.797-2.99-.797-1.235 0-2.233.266-2.992.797-.76.53-1.14 1.277-1.14 2.237 0 1.067.464 1.867 1.39 2.4v3.123h-2.939v.844h11.363zm-5.681-4.183c-.944 0-1.705-.194-2.282-.58-.578-.388-.867-.922-.867-1.604 0-.681.29-1.218.87-1.612.58-.394 1.34-.59 2.279-.59.935 0 1.691.196 2.269.59.577.394.866.931.866 1.612 0 .677-.286 1.21-.86 1.6-.573.39-1.332.584-2.275.584zm1.796 3.339h-3.593v-2.73c.567.157 1.166.235 1.797.235.69 0 1.288-.078 1.796-.235v2.73zm4.976-.971l.114-6.735h-1.053l.114 6.735h.825zm-.368 2.723c.178 0 .333-.071.466-.213.134-.142.2-.3.2-.473 0-.19-.07-.355-.212-.495s-.304-.21-.486-.21-.343.068-.482.204c-.14.135-.21.302-.21.501 0 .186.068.347.203.483.136.135.31.203.52.203z" transform="translate(-2 -57) translate(2 57) translate(4 2.943)"/>
                </g>
            </g>
        </g>
    </g>
</svg>
