<svg xmlns="http://www.w3.org/2000/svg" width="16" height="16" viewBox="0 0 16 16">
    <g fill="none" fill-rule="evenodd">
        <g>
            <g>
                <g>
                    <g>
                        <g>
                            <g>
                                <path d="M0 0H16V16H0z" transform="translate(-483 -777) translate(360 297) translate(0 425) translate(0 42) translate(79 11) translate(43 2)"/>
                                <path stroke="#333" stroke-linecap="round" stroke-linejoin="round" d="M2 7.72C2.394 4.727 4.96 2.49 7.992 2.5c3.032.01 5.585 2.26 5.961 5.255.376 2.996-1.542 5.803-4.478 6.555-2.936.752-5.977-.786-7.098-3.59M2 14.47v-3.75h3.766" transform="translate(-483 -777) translate(360 297) translate(0 425) translate(0 42) translate(79 11) translate(43 2) rotate(180 8 8.5)"/>
                            </g>
                        </g>
                    </g>
                </g>
            </g>
        </g>
    </g>
</svg>
