<?xml version="1.0" encoding="UTF-8"?>
<svg width="18px" height="18px" viewBox="0 0 18 18" version="1.1" xmlns="http://www.w3.org/2000/svg" xmlns:xlink="http://www.w3.org/1999/xlink">
    <title>79789F22-E874-49C4-9537-9ACD5824F1A4</title>
    <g id="01_공통" stroke="none" stroke-width="1" fill="none" fill-rule="evenodd">
        <g id="02_홈메인_01_공통_03_실시간인기검색" transform="translate(-1349.000000, -463.000000)" fill="#F50D87" fill-rule="nonzero">
            <g id="+펼침-" transform="translate(1019.000000, 24.000000)">
                <g id="검색어순위" transform="translate(24.000000, 92.000000)">
                    <g id="4" transform="translate(3.500000, 343.888889)">
                        <g id="Triangle-2" transform="translate(302.500000, 3.111111)">
                            <path d="M1.64453125,12 L1.64453125,8.30859375 L1.66796875,8.30859375 L4.22265625,12 L5.24609375,12 L5.24609375,6.36328125 L4.0703125,6.36328125 L4.0703125,10.0273438 L4.046875,10.0273438 L1.5,6.36328125 L0.46875,6.36328125 L0.46875,12 L1.64453125,12 Z M9.66796875,12 L9.66796875,11.0273438 L7.11328125,11.0273438 L7.11328125,9.609375 L9.5234375,9.609375 L9.5234375,8.6875 L7.11328125,8.6875 L7.11328125,7.3359375 L9.66796875,7.3359375 L9.66796875,6.36328125 L5.93359375,6.36328125 L5.93359375,12 L9.66796875,12 Z M12.6132812,12 L13.6523438,8.22265625 L13.6757812,8.22265625 L14.7109375,12 L15.8632812,12 L17.359375,6.36328125 L16.1367188,6.36328125 L15.2421875,10.4023438 L15.21875,10.4023438 L14.1796875,6.36328125 L13.1445312,6.36328125 L12.1054688,10.4023438 L12.0820312,10.4023438 L11.1914062,6.36328125 L9.96875,6.36328125 L11.4609375,12 L12.6132812,12 Z" id="NEW"></path>
                        </g>
                    </g>
                </g>
            </g>
        </g>
    </g>
</svg>