<?xml version="1.0" encoding="UTF-8"?>
<svg width="84px" height="36px" viewBox="0 0 84 36" version="1.1" xmlns="http://www.w3.org/2000/svg" xmlns:xlink="http://www.w3.org/1999/xlink">
    <title>5EA53EEB-89F1-493E-9B14-10EC703B9062</title>
    <defs>
        <polygon id="path-1" points="0 0.113195122 31.5503488 0.113195122 31.5503488 34.8291915 0 34.8291915"></polygon>
        <polygon id="path-3" points="0.172609756 0.191023171 14.1376098 0.191023171 14.1376098 16.5354256 0.172609756 16.5354256"></polygon>
    </defs>
    <g id="FOOTER" stroke="none" stroke-width="1" fill="none" fill-rule="evenodd">
        <g transform="translate(-464.000000, -667.000000)" id="[footer]">
            <g transform="translate(104.000000, 332.000000)">
                <g id="trn_logo" transform="translate(360.000000, 335.000000)">
                    <path d="M23.8635549,22.847539 C23.8364085,21.9532463 23.8205305,21.0533195 23.6417744,20.1792585 C23.6212866,20.0763073 23.5931159,19.9754049 23.5657134,19.8757829 C22.9679817,17.6423561 20.9327744,15.9941122 18.5090671,15.9941122 C17.87625,15.9941122 17.2477866,16.1083317 16.6592744,16.3336976 C15.6878963,16.7014537 14.6827134,17.2925268 13.6514085,17.7791122 C12.72075,24.3895024 13.4826402,31.9730634 14.2184085,34.9717098 L22.0954573,34.9717098 C23.5557256,29.3408927 23.9439695,25.472539 23.8635549,22.847539" id="Fill-1" fill="#FFFFFF"></path>
                    <path d="M32.1904902,3.04538415 C32.1904902,3.04538415 31.5543439,3.04538415 31.5497341,3.04205488 C31.9935512,3.83211585 32.2483683,4.73895732 32.2483683,5.70342073 C32.2483683,7.2497378 31.6006976,8.64111585 30.5647829,9.6340061 C29.5877707,10.5690183 28.2645146,11.1452378 26.8029659,11.1452378 C24.2276488,11.1452378 22.2715756,9.15279878 19.8148317,8.79733537 C19.7572098,8.78837195 19.6970268,8.78043293 19.6394049,8.77479878 C19.579478,8.76916463 19.5228805,8.75789634 19.4650024,8.75328659 C19.4196732,8.75098171 19.3802341,8.75431098 19.3395146,8.75431098 C19.3292707,8.75431098 19.3200512,8.75328659 19.3087829,8.75328659 L19.2260634,8.75328659 L19.1366854,8.75328659 C17.8349415,8.74406707 16.6279537,9.42784756 15.907039,10.4740061 C15.0683195,11.6897012 14.581478,13.1717378 14.234978,14.6455793 C14.1105146,15.17775 14.0006488,15.7096646 13.9043561,16.2269817 C13.807039,16.7376402 13.7256,17.2549573 13.6518439,17.7802134 C14.6821244,17.2923476 15.6873073,16.7015305 16.6586854,16.3335183 C17.2474537,16.1094329 17.8766854,15.9939329 18.5097585,15.9939329 C20.9332098,15.9939329 22.9686732,17.6421768 23.5664049,19.8756037 C23.5935512,19.9765061 23.621978,20.075872 23.6424659,20.1790793 C23.821222,21.0528841 23.8358195,21.9530671 23.8642463,22.8473598 C23.9433805,25.4736402 23.5564171,29.3407134 22.0958927,34.9715305 L32.1904902,34.9715305 C33.5839171,34.9715305 34.7138195,33.841628 34.7138195,32.4482012 L34.7138195,5.57332317 C34.7138195,4.17861585 33.5839171,3.04538415 32.1904902,3.04538415" id="Fill-3" fill="#D70F52"></path>
                    <g id="Group-7" transform="translate(0.000000, 0.142902)">
                        <mask id="mask-2" fill="white">
                            <use xlink:href="#path-1"></use>
                        </mask>
                        <g id="Clip-6"></g>
                        <path d="M13.6514341,17.63685 C13.4952146,17.7070207 13.3389951,17.7794963 13.1827756,17.8473622 C11.8774463,18.4066793 10.1600561,18.5559841 8.76662927,18.1925817 C8.14508049,18.030728 7.55400732,17.7930695 7.00621463,17.4929232 C4.61323902,16.1822159 2.98522683,13.6486427 2.96269024,10.7334841 C2.96269024,10.7109476 2.96038537,10.6904598 2.96038537,10.6712524 C2.96038537,6.64002073 6.03048293,3.32304512 9.9597878,2.93480122 C10.4625073,2.88614268 10.952678,2.89869146 11.4495073,2.89869146 L31.5503488,2.89869146 C31.2061537,2.2861061 30.7464585,1.74753293 30.2019951,1.31139878 C29.7807146,0.973093902 29.3123122,0.696764634 28.8029341,0.494191463 C27.7160561,0.0652280488 26.7165073,0.114910976 25.576361,0.114910976 L2.52553171,0.114910976 C1.1298,0.114910976 -0.000102439024,1.2458378 -0.000102439024,2.63926463 L-0.000102439024,32.3048378 C-0.000102439024,33.6985207 1.1298,34.8291915 2.52553171,34.8291915 L14.2184341,34.8291915 C13.4826659,31.8292646 12.7207756,24.2457037 13.6514341,17.63685" id="Fill-5" fill="#00BAF1" mask="url(#mask-2)"></path>
                    </g>
                    <path d="M31.5498622,3.04138902 L11.4490207,3.04138902 C10.9532159,3.04138902 10.4620207,3.02909634 9.96032561,3.07775488 C6.02999634,3.46599878 2.95989878,6.78271829 2.95989878,10.8142061 C2.95989878,10.8334134 2.96220366,10.8536451 2.96220366,10.8764378 C2.98576463,13.7913402 4.61249634,16.3249134 7.00700854,17.6358768 C7.55480122,17.9357671 8.14587439,18.1734256 8.76614268,18.3355354 C10.1598256,18.6999622 11.8769598,18.5493768 13.182289,17.9903159 C13.3395329,17.9234744 13.494728,17.8509988 13.6509476,17.7795476 C13.725472,17.2542915 13.8071671,16.7379988 13.9044841,16.2263159 C14.0007768,15.7089988 14.1103866,15.1781085 14.2351061,14.6449134 C14.58135,13.171072 15.0671671,11.6892915 15.9071671,10.4733402 C16.6280817,9.4274378 17.8350695,8.74468171 19.1368134,8.75262073 L19.2261915,8.75262073 L19.308911,8.75262073 C19.3201793,8.75262073 19.3293988,8.75492561 19.3393866,8.75492561 C19.3801061,8.75492561 19.4198012,8.75031585 19.4651305,8.75262073 C19.5230085,8.75723049 19.57935,8.76849878 19.6395329,8.77413293 C19.6971549,8.78104756 19.7573378,8.78873049 19.8149598,8.79692561 C22.2714476,9.15213293 24.2277768,11.1458524 26.8030939,11.1458524 C28.2646427,11.1458524 29.5878988,10.5686085 30.564911,9.63462073 C31.5995451,8.64173049 32.2482402,7.25035244 32.2482402,5.70301098 C32.2482402,4.73829146 31.9936793,3.83145 31.5498622,3.04138902" id="Fill-8" fill="#351B6F"></path>
                    <path d="M53.0836976,28.2401085 C52.4360268,28.3115598 51.8021854,28.3486939 51.1829415,28.3486939 C50.5852098,28.3486939 50.0261488,28.2662305 49.5006366,28.102072 C48.9753805,27.9356085 48.5156854,27.6684988 48.1241122,27.2994622 C47.7333073,26.9270963 47.4244537,26.453828 47.1980634,25.8776085 C46.9729537,25.3003646 46.858222,24.6007061 46.858222,23.776328 L46.858222,15.2170354 L44.4788195,15.2170354 L44.4788195,12.0347671 L46.9207098,12.0347671 L48.0016976,7.43192561 L50.9982951,7.43192561 L50.9982951,12.0347671 L54.6141366,12.0347671 L54.6141366,15.2170354 L50.9982951,15.2170354 L50.9982951,22.4779134 C50.9982951,23.3238037 51.1114902,23.9712183 51.339161,24.4239988 C51.5642707,24.8780598 52.0488073,25.1031695 52.7914902,25.1031695 L54.6753439,25.1031695 L54.6753439,27.9468768 C54.2630268,28.0703159 53.7334171,28.1689134 53.0836976,28.2401085" id="Fill-10" fill="#6D6E70"></path>
                    <path d="M67.0960244,15.7737402 C66.806378,15.6899963 66.2980244,15.6164963 66.2211951,15.6083012 C65.7230854,15.5486305 65.2157561,15.5383866 64.7414634,15.7261061 C64.2151829,15.9322646 63.7680366,16.3036061 63.3536707,16.6795573 C63.1306098,16.88085 62.9393049,17.0936671 62.7185488,17.3144232 C62.6076585,17.4265939 62.1208171,17.9982037 62.1208171,17.9982037 L62.1208171,27.9468256 L57.9807439,27.9468256 L57.9807439,12.0344598 L61.1630122,12.0344598 L61.6260366,14.7854598 C61.8749634,14.4346061 62.1420732,14.0701793 62.4296707,13.6885939 C63.0048659,12.9300329 63.7111829,12.2769841 64.5931829,11.8964232 C65.0459634,11.7007646 65.5622561,11.6021671 66.1361707,11.6021671 C66.585622,11.6021671 67.0599146,11.6157402 67.4968171,11.7266305 L67.0960244,15.7737402 Z" id="Fill-12" fill="#6D6E70"></path>
                    <g id="Group-16" transform="translate(69.658537, 11.411195)">
                        <mask id="mask-4" fill="white">
                            <use xlink:href="#path-3"></use>
                        </mask>
                        <g id="Clip-15"></g>
                        <path d="M14.1376359,5.7526939 L14.1376359,16.5354256 L9.9965122,16.5354256 L9.9965122,7.14279146 C9.9965122,5.9101939 10.0190488,3.97179146 8.55878049,3.53053537 C7.70059756,3.27136463 6.75431707,3.69571829 6.04108537,4.14747439 C5.70354878,4.35926707 4.31140244,5.29530366 4.31140244,5.7526939 L4.31140244,16.5354256 L0.172609756,16.5354256 L0.172609756,0.623315854 L3.29341463,0.623315854 L3.72493902,2.60090122 C4.78236585,1.54373049 6.04543902,0.647132927 7.52645122,0.322145122 C7.95208537,0.228413415 8.38796341,0.191023171 8.82128049,0.191023171 C9.81058537,0.191023171 10.7120488,0.372084146 11.5259268,0.732157317 C12.3395488,1.09325488 12.972622,1.74630366 13.4266829,2.69386463 C13.4266829,2.69386463 13.9755,3.82940122 14.1012439,5.21847439 C14.1399146,5.63616951 14.1376359,5.7526939 14.1376359,5.7526939" id="Fill-14" fill="#6D6E70" mask="url(#mask-4)"></path>
                    </g>
                </g>
            </g>
        </g>
    </g>
</svg>