<svg xmlns="http://www.w3.org/2000/svg" width="30" height="30" viewBox="0 0 30 30">
    <g fill="none" fill-rule="evenodd">
        <g>
            <g>
                <g transform="translate(-109 -1343) translate(93 1334) translate(16 9)">
                    <circle cx="15" cy="15" r="15" fill="#F9E000"/>
                    <g>
                        <g>
                            <path fill="#3C1E1E" d="M8.27.041C3.722.041.035 3.063.035 6.79c0 2.31 1.416 4.348 3.576 5.565l-.595 3.29c-.03.163.146.284.28.192l3.538-2.402s.946.103 1.436.103c4.548 0 8.235-3.022 8.235-6.748C16.505 3.063 12.818.04 8.27.04" transform="translate(6 6) translate(.6 1.2)"/>
                            <path fill="#F9E000" d="M4.935 4.908H2.562c-.223 0-.404.188-.404.42 0 .231.18.419.404.419h.771v2.954c0 .107.042.212.116.289.073.076.174.12.278.12h.086c.103 0 .204-.044.277-.12.074-.077.116-.182.116-.29V5.748h.729c.223 0 .404-.188.404-.42 0-.23-.18-.419-.404-.419M10.489 8.32H9.386V5.306c0-.252-.197-.455-.438-.455-.242 0-.438.203-.438.455v3.397c0 .21.164.38.366.38h1.613c.203 0 .367-.17.367-.38s-.164-.381-.367-.381M14.03 8.46L12.8 6.78l1.112-1.155c.15-.156.15-.41 0-.565-.15-.157-.395-.157-.545 0L11.991 6.49V5.305c0-.252-.196-.455-.438-.455-.241 0-.438.203-.438.455v3.35c0 .252.197.456.438.456.242 0 .438-.204.438-.456V7.622l.25-.26 1.163 1.586c.13.18.376.216.549.08.173-.134.208-.39.077-.569M5.944 7.48l.544-1.612.018.002.543 1.61H5.944zm2.304 1.088L7.065 5.207l-.004-.004C6.985 5 6.767 4.85 6.506 4.85c-.064 0-.128.009-.19.027-.057.018-.113.043-.163.077-.048.032-.092.071-.128.117-.024.03-.044.064-.06.1-.015.03-.073.203-.092.256l-.02.056-.024.067-.028.077-.03.086-.035.095-.037.103-.039.109-.041.115-.044.12-.044.126-.046.128-.048.131-.047.133-.048.134-.049.135-.048.134-.047.132-.047.13-.045.127-.045.123-.042.119-.04.113-.04.107-.035.1-.033.09-.03.084-.026.073-.022.063-.019.051-.014.04-.01.026-.005.014c-.071.212.036.445.24.52.205.074.43-.038.5-.25l.202-.597h1.619l.201.597c.072.212.296.324.5.25.205-.075.312-.308.24-.52z" transform="translate(6 6) translate(.6 1.2)"/>
                        </g>
                    </g>
                </g>
            </g>
        </g>
    </g>
</svg>
