<?xml version="1.0" encoding="UTF-8"?>
<svg width="160px" height="48px" viewBox="0 0 160 48" version="1.1" xmlns="http://www.w3.org/2000/svg" xmlns:xlink="http://www.w3.org/1999/xlink">
    <title>8C2F248B-1F6F-4E1E-AAB4-5D694EBAFD5E</title>
    <defs>
        <polygon id="path-1" points="0 0.10030714 28.1528362 0.10030714 28.1528362 10.1359471 0 10.1359471"></polygon>
        <polygon id="path-3" points="0 40.0064 155.8144 40.0064 155.8144 0 0 0"></polygon>
    </defs>
    <g id="GNB" stroke="none" stroke-width="1" fill="none" fill-rule="evenodd">
        <g transform="translate(-326.000000, -353.000000)" id="[Top]">
            <g transform="translate(106.000000, 320.000000)">
                <g id="top" transform="translate(220.000000, 32.000000)">
                    <g id="pc_logo" transform="translate(0.000000, 1.000000)">
                        <g id="logo" transform="translate(0.000000, 2.000000)">
                            <path d="M145.476205,29.7903911 C145.141502,30.6381666 140.642589,29.6532433 135.42838,27.5846192 C130.216246,25.514958 126.263849,23.154668 126.600626,22.3055962 C126.936625,21.4578207 131.434502,22.4445588 136.650784,24.5129236 C141.864474,26.581807 145.814797,28.9446896 145.476205,29.7903911 M138.247558,20.4809344 C127.607327,16.2607234 118.139463,14.9652083 117.102429,17.5873495 C116.060987,20.2045647 123.846781,25.7482907 134.482346,29.9679832 C145.126984,34.1874164 154.592774,35.4821537 155.631882,32.8644199 C156.670731,30.241501 148.888048,24.6993305 138.247558,20.4809344" id="Fill-1" fill="#DC0073"></path>
                            <path d="M143.46594,1.03368984 L130.779122,16.9620178 C133.25919,17.6596826 135.905442,18.5512728 138.58799,19.6139737 C141.266131,20.6766746 143.802976,21.8384122 146.096118,23.0351498 L147.77067,2.74920379 C147.989225,0.160247722 145.075936,-0.991638101 143.46594,1.03368984" id="Fill-3" fill="#DC0073"></path>
                            <g id="Group-7" transform="translate(0.000000, 24.376787)">
                                <mask id="mask-2" fill="white">
                                    <use xlink:href="#path-1"></use>
                                </mask>
                                <g id="Clip-6"></g>
                                <polygon id="Fill-5" fill="#231F20" mask="url(#mask-2)" points="20.4515604 0.10030714 16.5886077 0.10030714 16.5886077 7.01499244 11.6601023 7.01499244 11.6621764 0.10030714 7.80103849 0.10030714 7.80103849 7.01499244 -5.18517138e-05 7.01499244 -5.18517138e-05 10.1359471 28.1528362 10.1359471 28.1528362 7.01499244 20.4461159 7.01499244"></polygon>
                            </g>
                            <path d="M3.81633799,24.6342048 C7.70858689,22.6918396 11.4354288,20.0860317 13.8410891,17.0599657 L24.6363566,24.5629087 L26.7101659,21.7616198 L15.7225285,14.1088254 C16.3291936,12.8112363 16.6836,11.4426103 16.6836,10.0374288 L16.6836,8.14613757 L12.8919435,7.95973066 L12.8919435,9.79813317 C12.9129434,14.1508253 7.86129018,18.76485 1.8757876,21.697583 L1.66656593,21.7984346 L3.66207914,24.7091305 L3.81633799,24.6342048 Z" id="Fill-8" fill="#231F20"></path>
                            <path d="M41.9135551,20.6341821 C40.5065588,20.7311448 39.0119332,20.7931076 37.4659743,20.8242186 L37.4659743,11.4209103 L41.9135551,11.4209103 L41.9135551,20.6341821 Z M49.3252391,19.6712958 L49.1315729,19.7114809 C48.0470943,19.9344432 46.9369491,20.1244798 45.7080635,20.2906645 L45.7080635,11.4209103 L48.8977217,11.4209103 L48.8977217,8.47702928 L30.4470671,8.47702928 L30.4470671,11.4209103 L33.6686141,11.4209103 L33.6686141,20.8260334 L30.0387348,20.8260334 L30.0387348,23.8028403 L34.9897957,23.8028403 C40.6693732,23.8028403 46.0015442,23.3641748 49.7519787,22.6188065 L49.9557559,22.5731769 L49.3252391,19.6712958 Z" id="Fill-10" fill="#231F20"></path>
                            <path d="M46.9278232,36.1939999 C44.2216823,36.1867407 42.2533912,34.6005968 42.2515764,32.3585287 C42.2533912,30.1180161 44.2216823,28.5318722 46.9278232,28.5227981 C49.6414827,28.5318722 51.6105515,30.1180161 51.6105515,32.3585287 C51.6105515,34.6005968 49.6414827,36.1867407 46.9278232,36.1939999 M46.9278232,25.2994364 C42.2717986,25.31214 38.6974007,28.2542063 38.6919563,32.3585287 C38.6974007,36.4589622 42.2717986,39.4028432 46.9278232,39.4137321 C51.5911071,39.4028432 55.1618754,36.4589622 55.1709494,32.3585287 C55.1618754,28.2542063 51.5911071,25.31214 46.9278232,25.2994364" id="Fill-12" fill="#231F20"></path>
                            <mask id="mask-4" fill="white">
                                <use xlink:href="#path-3"></use>
                            </mask>
                            <g id="Clip-15"></g>
                            <polygon id="Fill-14" fill="#231F20" mask="url(#mask-4)" points="51.7830103 25.4693026 55.6130371 25.4693026 55.6130371 7.45912829 51.7830103 7.45912829"></polygon>
                            <path d="M101.769877,24.0221212 C99.1046991,24.6598973 95.8987077,25.0363408 92.6185682,25.0308963 L88.9202448,25.0308963 L88.9202448,19.6346885 L91.0285354,19.6346885 C93.6403063,19.6346885 96.1908921,19.6346885 98.9175144,19.3987632 L99.0938103,19.3788003 L99.0938103,16.4312896 L98.8791442,16.4551414 C96.1763736,16.685363 93.6403063,16.685363 91.0285354,16.685363 L88.9202448,16.685363 L88.9202448,11.8631536 L99.5083647,11.8631536 L99.5083647,8.91538367 L85.1319585,8.91538367 L85.1319585,28.047629 L92.6185682,28.047629 C96.3026325,28.047629 99.7406604,27.5726673 102.378357,26.8928914 L102.560097,26.8397434 L101.970803,23.9728621 L101.769877,24.0221212 Z M104.841832,35.6475347 L108.6646,35.6475347 L108.6646,7.45886903 L104.841832,7.45886903 L104.841832,35.6475347 Z" id="Fill-16" fill="#231F20" mask="url(#mask-4)"></path>
                            <polygon id="Fill-17" fill="#231F20" mask="url(#mask-4)" points="77.2214352 11.7697687 77.2214352 28.0989104 77.3759533 28.0989104 77.3759533 28.1061696 80.0846868 28.1061696 80.0846868 28.0989104 80.2420567 28.0989104 80.2420567 11.7697687"></polygon>
                            <polygon id="Fill-18" fill="#231F20" mask="url(#mask-4)" points="69.273423 26.324441 66.0956907 26.324441 66.0956907 26.6352921 66.0956907 34.5128637 79.9302465 34.5128637 80.2421345 34.5128637 80.2421345 31.9892408 69.273423 31.9892408"></polygon>
                            <path d="M67.4917722,18.594932 C67.4917722,20.4971121 66.3352197,21.9938118 64.8595199,21.9992562 C63.4011905,21.9938118 62.2181936,20.4660011 62.2181936,18.594932 C62.2181936,16.7217888 63.4011905,15.1960521 64.8566681,15.1906077 C66.3352197,15.1960521 67.4917722,16.688863 67.4917722,18.594932 M70.367209,19.9653728 L72.3030927,19.9653728 L72.3030927,27.2821681 L72.4604626,27.2821681 L72.4604626,27.2876125 L75.3019366,27.2876125 L75.3019366,27.2821681 L75.3200847,27.2821681 L75.3200847,11.7696909 L72.3030927,11.7696909 L72.3030927,17.4199721 L70.4045422,17.4199721 C69.997247,14.6661276 67.7621789,12.5189482 64.8566681,12.5189482 C61.5329732,12.520763 59.2258312,15.2930148 59.2175349,18.594932 C59.2258312,21.8932195 61.5329732,24.6615825 64.8566681,24.669101 C67.6799939,24.6763602 69.890951,22.6388471 70.367209,19.9653728" id="Fill-19" fill="#231F20" mask="url(#mask-4)"></path>
                        </g>
                    </g>
                </g>
            </g>
        </g>
    </g>
</svg>