<svg xmlns="http://www.w3.org/2000/svg" width="242" height="122" viewBox="0 0 242 122">
    <g fill="none" fill-rule="evenodd" stroke-linejoin="round">
        <g fill="#FFF" stroke="#C7C7C7">
            <g>
                <g>
                    <path d="M240.77 4.69h.23V1H1v3.688h.23c2.668 0 4.83 2.162 4.83 4.83 0 2.667-2.162 4.83-4.83 4.83H1v3.212h.23c1.726 0 3.32.92 4.183 2.415.863 1.494.863 3.336 0 4.83-.862 1.494-2.457 2.415-4.183 2.415H1v3.212h.23c2.668 0 4.83 2.163 4.83 4.83 0 2.668-2.162 4.83-4.83 4.83H1V43.3h.23c2.668 0 4.83 2.162 4.83 4.83s-2.162 4.83-4.83 4.83H1v3.21h.23c2.668 0 4.83 2.162 4.83 4.83s-2.162 4.83-4.83 4.83H1v3.21h.23c2.668 0 4.83 2.162 4.83 4.83S3.898 78.7 1.23 78.7H1v3.211h.23c2.668 0 4.83 2.163 4.83 4.83 0 2.668-2.162 4.83-4.83 4.83H1v3.21h.23c2.668 0 4.83 2.163 4.83 4.83 0 2.668-2.162 4.83-4.83 4.83H1v3.212h.23c2.668 0 4.83 2.162 4.83 4.83s-2.162 4.83-4.83 4.83H1V121h240v-3.688h-.232c-1.725 0-3.32-.92-4.183-2.415-.862-1.494-.862-3.335 0-4.83.863-1.494 2.458-2.415 4.183-2.415H241v-3.212h-.232c-2.667 0-4.83-2.162-4.83-4.83s2.163-4.83 4.83-4.83H241v-3.212h-.232c-2.667 0-4.83-2.163-4.83-4.83 0-2.668 2.163-4.83 4.83-4.83H241V78.7h-.232c-2.667 0-4.83-2.162-4.83-4.83s2.163-4.83 4.83-4.83H241v-3.21h-.232c-2.667 0-4.83-2.162-4.83-4.83s2.163-4.83 4.83-4.83H241v-3.21h-.232c-2.667 0-4.83-2.162-4.83-4.83s2.163-4.83 4.83-4.83H241v-3.212h-.232c-2.667 0-4.83-2.162-4.83-4.83 0-2.667 2.163-4.83 4.83-4.83H241V27.22h-.232c-1.725 0-3.32-.92-4.183-2.415-.862-1.494-.862-3.336 0-4.83.863-1.494 2.458-2.415 4.183-2.415H241v-3.212h-.232c-1.725 0-3.32-.92-4.182-2.415-.862-1.494-.862-3.335 0-4.83.864-1.494 2.458-2.414 4.184-2.414z" transform="translate(-599 -471) translate(520 335) translate(79 136)"/>
                </g>
            </g>
        </g>
    </g>
</svg>
