<svg xmlns="http://www.w3.org/2000/svg" width="32" height="32" viewBox="0 0 32 32">
    <g fill="none" fill-rule="evenodd">
        <g stroke="#000" stroke-width="1.3">
            <g>
                <g>
                    <g>
                        <g>
                            <path stroke-linecap="round" stroke-linejoin="round" d="M18.22 15.126L18.377 20.123" transform="translate(-1162 -471) translate(360 213) translate(350 251) translate(452 7) translate(5 6) rotate(-45 18.298 17.625)"/>
                            <path fill-rule="nonzero" d="M9.81.65c2.265 0 4.53.864 6.258 2.592C17.796 4.97 18.66 7.235 18.66 9.5s-.864 4.53-2.592 6.258c-1.728 1.728-3.993 2.592-6.258 2.592s-4.53-.864-6.258-2.592C1.824 14.03.96 11.765.96 9.5s.864-4.53 2.592-6.258C5.28 1.514 7.545.65 9.81.65z" transform="translate(-1162 -471) translate(360 213) translate(350 251) translate(452 7) translate(5 6)"/>
                        </g>
                    </g>
                </g>
            </g>
        </g>
    </g>
</svg>
