<svg xmlns="http://www.w3.org/2000/svg" width="38" height="38" viewBox="0 0 38 38">
    <g fill="none" fill-rule="evenodd" stroke-linecap="round">
        <g stroke="#000" stroke-width="1.711">
            <g>
                <g>
                    <g>
                        <g>
                            <g>
                                <path d="M13.095 4.581C7.227 4.582 2.268 8.514.653 13.912" transform="translate(-1512 -238) translate(360 213) translate(1143 16) translate(9.333 9.333) translate(8.222 6.667) translate(8.697) rotate(-9 6.874 9.246)"/>
                                <path d="M6.43 0L13.272 3.359M13.272 3.359L9.913 10.202" transform="translate(-1512 -238) translate(360 213) translate(1143 16) translate(9.333 9.333) translate(8.222 6.667) translate(8.697)"/>
                            </g>
                            <path d="M19.699 13.68v5.278c0 1.718-1.393 3.11-3.111 3.11H3.11C1.393 22.069 0 20.677 0 18.959V6.22c0-1.718 1.393-3.11 3.111-3.11H9.85" transform="translate(-1512 -238) translate(360 213) translate(1143 16) translate(9.333 9.333) translate(8.222 6.667)"/>
                        </g>
                    </g>
                </g>
            </g>
        </g>
    </g>
</svg>
