<?xml version="1.0" encoding="UTF-8"?>
<svg width="36px" height="36px" viewBox="0 0 36 36" version="1.1" xmlns="http://www.w3.org/2000/svg" xmlns:xlink="http://www.w3.org/1999/xlink">
    <title>062A3F6F-93C1-402C-A44D-94FD626D23C8</title>
    <g id="GNB" stroke="none" stroke-width="1" fill="none" fill-rule="evenodd">
        <g transform="translate(-1490.000000, -359.000000)" id="[Top]" stroke="#000000" stroke-width="1.652625">
            <g transform="translate(106.000000, 320.000000)">
                <g id="top" transform="translate(220.000000, 32.000000)">
                    <g id="icon" transform="translate(1043.000000, 6.000000)">
                        <g id="icon_36_cart_nor" transform="translate(120.600000, 0.600000)">
                            <path d="M10.609431,24.1153649 C9.15915397,24.1153649 7.97925862,25.2737518 7.97925862,26.6975915 C7.97925862,28.1214312 9.15915397,29.2798181 10.609431,29.2798181 C12.0597081,29.2798181 13.2396034,28.1214312 13.2396034,26.6975915 C13.2396034,25.2737518 12.0597081,24.1153649 10.609431,24.1153649 Z" id="Path" fill-rule="nonzero"></path>
                            <path d="M24.8335386,24.1153649 C23.3832616,24.1153649 22.2033662,25.2737518 22.2033662,26.6975915 C22.2033662,28.1214312 23.3832616,29.2798181 24.8335386,29.2798181 C26.2838157,29.2798181 27.463711,28.1214312 27.463711,26.6975915 C27.463711,25.2737518 26.2838157,24.1153649 24.8335386,24.1153649 Z" id="Path" fill-rule="nonzero"></path>
                            <path d="M2.1490431,3 L6.92178496,3 C7.62387695,3 8.19303496,3.56915801 8.19303496,4.27125 L8.19303496,18.497879 C8.19303496,19.9020629 9.33135098,21.040379 10.735535,21.040379 L27.4202123,21.040379 C28.5399138,21.040379 29.5278096,20.307871 29.8530735,19.2364538 L32.9534762,9.02374551 C33.157428,8.35192945 32.7781491,7.64197931 32.1063331,7.4380275 C31.9866058,7.40168037 31.8621685,7.38320809 31.7370456,7.38320809 L8.80995971,7.38320809 L8.80995971,7.38320809" id="Path-4" stroke-linecap="round" stroke-linejoin="round"></path>
                        </g>
                    </g>
                </g>
            </g>
        </g>
    </g>
</svg>