<svg xmlns="http://www.w3.org/2000/svg" width="30" height="30" viewBox="0 0 30 30">
    <g fill="none" fill-rule="evenodd">
        <g>
            <g>
                <g>
                    <g transform="translate(-319 -1343) translate(93 1334) translate(16 9) translate(210)">
                        <circle cx="15" cy="15" r="15" fill="#F5F5F5"/>
                        <g stroke="#333" stroke-linecap="round">
                            <g>
                                <path d="M5.227 4.83C5.206 3.513 6.254 2.465 7.57 2.486l3.464.057c1.315.022 2.398 1.105 2.42 2.42.021 1.315-1.027 2.364-2.342 2.342" transform="translate(6.912 5.488) translate(1.8 2.4) rotate(-45 9.34 4.897)"/>
                                <path d="M9.173 8.97c.021 1.316-1.027 2.364-2.342 2.343l-3.464-.057C2.052 11.234.97 10.15.947 8.836.926 7.52 1.974 6.472 3.29 6.494" transform="translate(6.912 5.488) translate(1.8 2.4) rotate(-45 5.06 8.903)"/>
                            </g>
                        </g>
                    </g>
                </g>
            </g>
        </g>
    </g>
</svg>
