<?xml version="1.0" encoding="UTF-8"?>
<svg width="28px" height="28px" viewBox="0 0 28 28" version="1.1" xmlns="http://www.w3.org/2000/svg" xmlns:xlink="http://www.w3.org/1999/xlink">
    <title>8F61EB39-C95D-4D6B-BC02-002D92F557B7</title>
    <g id="GNB" stroke="none" stroke-width="1" fill="none" fill-rule="evenodd">
        <g transform="translate(-866.000000, -3449.000000)" id="[Top]" stroke="#000000" stroke-width="1.3">
            <g transform="translate(100.000000, 3428.000000)">
                <g id="top" transform="translate(386.000000, 16.000000)">
                    <g id="icon_32-/search/nor" transform="translate(380.000000, 5.000000)">
                        <g id="icon_32_search_nor" transform="translate(4.375000, 5.250000)">
                            <line x1="15.9422662" y1="13.2352006" x2="16.07967" y2="17.6080424" id="Path-8" stroke-linecap="round" stroke-linejoin="round" transform="translate(16.010968, 15.421621) rotate(-45.000000) translate(-16.010968, -15.421621) "></line>
                            <path d="M8.58379555,0.65 C10.5448003,0.65 12.5058051,1.3980981 14.0020013,2.89429429 C15.4981975,4.39049048 16.2462955,6.35149524 16.2462955,8.3125 C16.2462955,10.2735048 15.4981975,12.2345095 14.0020013,13.7307057 C12.5058051,15.2269019 10.5448003,15.975 8.58379555,15.975 C6.62279079,15.975 4.66178603,15.2269019 3.16558984,13.7307057 C1.66939364,12.2345095 0.921295547,10.2735048 0.921295547,8.3125 C0.921295547,6.35149524 1.66939364,4.39049048 3.16558984,2.89429429 C4.66178603,1.3980981 6.62279079,0.65 8.58379555,0.65 Z" id="Oval" fill-rule="nonzero" transform="translate(8.583796, 8.312500) rotate(-360.000000) translate(-8.583796, -8.312500) "></path>
                        </g>
                    </g>
                </g>
            </g>
        </g>
    </g>
</svg>