<svg xmlns="http://www.w3.org/2000/svg" width="342" height="172" viewBox="0 0 342 172">
    <g fill="none" fill-rule="evenodd" stroke-linejoin="round">
        <g fill="#FFF" stroke="#C7C7C7">
            <g>
                <g>
                    <g>
                        <g>
                            <path d="M340.674 6.227H341V1H1v5.224h.326c3.78 0 6.843 3.064 6.843 6.843s-3.064 6.842-6.843 6.842H1v4.551h.326c2.445 0 4.704 1.304 5.926 3.421 1.222 2.117 1.222 4.726 0 6.843s-3.481 3.421-5.926 3.421H1v4.55h.326c3.78 0 6.843 3.064 6.843 6.843 0 3.78-3.064 6.843-6.843 6.843H1v4.544h.326c3.78 0 6.843 3.063 6.843 6.843 0 3.779-3.064 6.842-6.843 6.842H1v4.547h.326c3.78 0 6.843 3.064 6.843 6.843s-3.064 6.843-6.843 6.843H1v4.547h.326c3.78 0 6.843 3.063 6.843 6.843 0 3.779-3.064 6.842-6.843 6.842H1v4.55h.326c3.78 0 6.843 3.063 6.843 6.842 0 3.779-3.064 6.842-6.843 6.842H1v4.548h.326c3.78 0 6.843 3.063 6.843 6.842 0 3.78-3.064 6.843-6.843 6.843H1v4.55h.326c3.78 0 6.843 3.063 6.843 6.842 0 3.78-3.064 6.843-6.843 6.843H1V171h340v-5.224h-.328c-2.445 0-4.704-1.304-5.926-3.421-1.222-2.117-1.222-4.726 0-6.843s3.481-3.421 5.926-3.421H341v-4.551h-.328c-3.78 0-6.843-3.063-6.843-6.843 0-3.779 3.064-6.842 6.843-6.842H341v-4.55h-.328c-3.78 0-6.843-3.064-6.843-6.843 0-3.78 3.064-6.843 6.843-6.843H341v-4.544h-.328c-3.78 0-6.843-3.063-6.843-6.843 0-3.779 3.064-6.842 6.843-6.842H341v-4.547h-.328c-3.78 0-6.843-3.064-6.843-6.843s3.064-6.843 6.843-6.843H341V74.61h-.328c-3.78 0-6.843-3.063-6.843-6.843 0-3.779 3.064-6.842 6.843-6.842H341v-4.55h-.328c-3.78 0-6.843-3.064-6.843-6.843s3.064-6.842 6.843-6.842H341v-4.545h-.328c-2.445 0-4.704-1.304-5.926-3.421-1.222-2.117-1.222-4.726 0-6.843s3.481-3.421 5.926-3.421H341v-4.55h-.328c-2.444 0-4.703-1.305-5.925-3.422-1.222-2.117-1.221-4.725.001-6.841 1.223-2.117 3.481-3.42 5.926-3.42z" transform="translate(-784 -1768) translate(338 213) translate(22) translate(248 1555) translate(176)"/>
                        </g>
                    </g>
                </g>
            </g>
        </g>
    </g>
</svg>
