<?xml version="1.0" encoding="UTF-8"?>
<svg width="32px" height="32px" viewBox="0 0 32 32" version="1.1" xmlns="http://www.w3.org/2000/svg" xmlns:xlink="http://www.w3.org/1999/xlink">
    <title>2059031D-8A8D-41C5-AC26-284D659ABE82</title>
    <g id="GNB" stroke="none" stroke-width="1" fill="none" fill-rule="evenodd">
        <g transform="translate(-896.000000, -359.000000)" id="[Top]" stroke="#000000" stroke-width="1.3">
            <g transform="translate(106.000000, 320.000000)">
                <g id="top" transform="translate(220.000000, 32.000000)">
                    <g id="searchbar" transform="translate(198.000000, 0.000000)">
                        <g id="icon_32-/search/nor" transform="translate(372.000000, 7.000000)">
                            <g id="icon_32_search_nor" transform="translate(5.000000, 6.000000)">
                                <line x1="18.2197328" y1="15.1259435" x2="18.3767657" y2="20.123477" id="Path-8" stroke-linecap="round" stroke-linejoin="round" transform="translate(18.298249, 17.624710) rotate(-45.000000) translate(-18.298249, -17.624710) "></line>
                                <path d="M9.81005205,0.65 C12.0749646,0.65 14.3398771,1.514035 16.0679471,3.24210499 C17.7960171,4.97017498 18.6600521,7.23508749 18.6600521,9.5 C18.6600521,11.7649125 17.7960171,14.029825 16.0679471,15.757895 C14.3398771,17.485965 12.0749646,18.35 9.81005205,18.35 C7.54513954,18.35 5.28022703,17.485965 3.55215704,15.757895 C1.82408705,14.029825 0.960052054,11.7649125 0.960052054,9.5 C0.960052054,7.23508749 1.82408705,4.97017498 3.55215704,3.24210499 C5.28022703,1.514035 7.54513954,0.65 9.81005205,0.65 Z" id="Oval" fill-rule="nonzero" transform="translate(9.810052, 9.500000) rotate(-360.000000) translate(-9.810052, -9.500000) "></path>
                            </g>
                        </g>
                    </g>
                </g>
            </g>
        </g>
    </g>
</svg>