<?xml version="1.0" encoding="UTF-8"?>
<svg width="36px" height="36px" viewBox="0 0 36 36" version="1.1" xmlns="http://www.w3.org/2000/svg" xmlns:xlink="http://www.w3.org/1999/xlink">
    <title>64F9BCB6-040E-4CBB-B1AE-85DDC261A204</title>
    <g id="GNB" stroke="none" stroke-width="1" fill="none" fill-rule="evenodd">
        <g transform="translate(-1430.000000, -359.000000)" fill="#000000" id="[Top]" stroke="#000000">
            <g transform="translate(106.000000, 320.000000)">
                <g id="top" transform="translate(220.000000, 32.000000)">
                    <g id="icon" transform="translate(1043.000000, 6.000000)">
                        <g id="icon-_36_cs_nor" transform="translate(60.400000, 0.800000)">
                            <path d="M19.513,24.1236667 C21.1621044,24.1236667 22.4989677,25.4328607 22.4989677,27.0478333 C22.4989677,28.662806 21.1621044,29.972 19.513,29.972 C17.8638956,29.972 16.5270323,28.662806 16.5270323,27.0478333 C16.5270323,25.4328607 17.8638956,24.1236667 19.513,24.1236667 Z M19.513,25.58575 C18.6884478,25.58575 18.0200161,26.240347 18.0200161,27.0478333 C18.0200161,27.8553197 18.6884478,28.5099167 19.513,28.5099167 C20.3375522,28.5099167 21.0059839,27.8553197 21.0059839,27.0478333 C21.0059839,26.240347 20.3375522,25.58575 19.513,25.58575 Z M6.97193548,12.842875 C4.49827881,12.842875 2.49298387,14.6102869 2.49298387,16.7905 C2.49298387,18.9707131 4.49827881,20.738125 6.97193548,20.738125 L6.97193548,20.738125 Z M28.4709032,20.738125 C30.9445599,20.738125 32.9498548,18.9707131 32.9498548,16.7905 C32.9498548,14.6102869 30.9445599,12.842875 28.4709032,12.842875 L28.4709032,20.738125 Z M28.4709032,22.054 L27.1272177,22.054 L27.1272177,11.527 C27.1272177,6.54581871 23.0897339,2.48812477 18.0447769,2.32121616 L17.7214194,2.315875 C12.6349628,2.315875 8.49151117,6.26979433 8.32107501,11.210335 L8.31562097,11.527 L8.31562097,22.054 L6.97193548,22.054 C3.67372659,22.054 1,19.6974508 1,16.7905 C1,13.8835492 3.67372659,11.527 6.97193548,11.527 L6.97193548,11.527 L6.97193548,11.527 C6.97193548,5.71309844 11.7846433,1 17.7214194,1 C23.6581954,1 28.4709032,5.71309844 28.4709032,11.527 L28.4709032,11.527 C31.7691121,11.527 34.4428387,13.8835492 34.4428387,16.7905 C34.4428387,19.6974508 31.7691121,22.054 28.4709032,22.054 L28.4709032,22.054 Z" id="Mask" stroke-width="0.3"></path>
                            <path d="M21.4845096,26.445233 C24.6150928,25.778517 26.9849105,23.0916004 27.1256611,19.8346036 L27.1322812,19.5276343 L27.1322812,13.8663333 L28.5653515,13.8663333 L28.5653515,19.5276343 C28.5653515,23.7353206 25.4667463,27.2282503 21.400204,27.9021387 L21.4,26.4598973 L21.4845096,26.445233 Z" id="Combined-Shape" stroke-width="0.2" fill-rule="nonzero"></path>
                        </g>
                    </g>
                </g>
            </g>
        </g>
    </g>
</svg>