<?xml version="1.0" encoding="UTF-8"?>
<svg width="108px" height="28px" viewBox="0 0 108 28" version="1.1" xmlns="http://www.w3.org/2000/svg" xmlns:xlink="http://www.w3.org/1999/xlink">
    <title>6ED14AEB-A781-434E-A43D-19300E0FAE66</title>
    <defs>
        <polygon id="path-1" points="0 0.0667042483 18.721636 0.0667042483 18.721636 6.74040481 0 6.74040481"></polygon>
        <polygon id="path-3" points="0 26.604256 103.616576 26.604256 103.616576 0 0 0"></polygon>
    </defs>
    <g id="GNB" stroke="none" stroke-width="1" fill="none" fill-rule="evenodd">
        <g transform="translate(-360.000000, -3550.000000)" id="[Top]">
            <g transform="translate(100.000000, 3428.000000)">
                <g id="logo" transform="translate(262.000000, 122.000000)">
                    <path d="M96.7416765,19.8106101 C96.5190992,20.3743808 93.5273214,19.7194068 90.0598728,18.3437717 C86.5938035,16.9674471 83.9654596,15.3978542 84.1894162,14.8332215 C84.4128556,14.2694507 87.4039438,14.9256316 90.8727716,16.3010942 C94.3398753,17.6769017 96.96684,19.2482186 96.7416765,19.8106101 M91.934626,13.6198214 C84.8588724,10.813381 78.5627431,9.95186352 77.8731153,11.6955874 C77.1805566,13.4360355 82.3581096,17.1226133 89.4307599,19.9287088 C96.5094444,22.7346319 102.804194,23.5956322 103.495202,21.8548392 C104.186036,20.1105981 99.010552,16.4250548 91.934626,13.6198214" id="Fill-1" fill="#DC0073"></path>
                    <path d="M95.4048503,0.687403744 L86.9681163,11.2797418 C88.6173611,11.7436889 90.3771189,12.3365964 92.1610136,13.0432925 C93.9419773,13.7499886 95.6289793,14.5225441 97.1539188,15.3183746 L98.2674953,1.82822052 C98.4128343,0.106564735 96.4754974,-0.659439337 95.4048503,0.687403744" id="Fill-3" fill="#DC0073"></path>
                    <g id="Group-7" transform="translate(0.000000, 16.210563)">
                        <mask id="mask-2" fill="white">
                            <use xlink:href="#path-1"></use>
                        </mask>
                        <g id="Clip-6"></g>
                        <polygon id="Fill-5" fill="#231F20" mask="url(#mask-2)" points="13.6002876 0.0667042483 11.0314241 0.0667042483 11.0314241 4.66496997 7.75396802 4.66496997 7.75534728 0.0667042483 5.1876906 0.0667042483 5.1876906 4.66496997 -3.44813897e-05 4.66496997 -3.44813897e-05 6.74040481 18.721636 6.74040481 18.721636 4.66496997 13.5966671 4.66496997"></polygon>
                    </g>
                    <path d="M2.53786476,16.3817462 C5.12621028,15.0900733 7.60456016,13.3572111 9.20432424,11.3448772 L16.3831772,16.3343343 L17.7622603,14.4714772 L10.4554815,9.38236889 C10.8589137,8.51947212 11.094594,7.60933583 11.094594,6.67489017 L11.094594,5.41718149 L8.5731424,5.29322089 L8.5731424,6.51575856 C8.58710736,9.41029882 5.22775797,12.4786253 1.24739875,14.4288927 L1.10826635,14.495959 L2.43528263,16.4315718 L2.53786476,16.3817462 Z" id="Fill-8" fill="#231F20"></path>
                    <path d="M27.8725141,13.7217311 C26.9368616,13.7862113 25.9429356,13.8274166 24.9148729,13.8481054 L24.9148729,7.59490537 L27.8725141,7.59490537 L27.8725141,13.7217311 Z M32.801284,13.0814117 L32.672496,13.1081348 C31.9513177,13.2564047 31.2130712,13.382779 30.3958622,13.4932919 L30.3958622,7.59490537 L32.5169849,7.59490537 L32.5169849,5.63722447 L20.2472996,5.63722447 L20.2472996,7.59490537 L22.3896284,7.59490537 L22.3896284,13.8493122 L19.9757587,13.8493122 L19.9757587,15.8288888 L23.2682142,15.8288888 C27.0451332,15.8288888 30.5910269,15.5371763 33.0850658,15.0415063 L33.2205777,15.0111627 L32.801284,13.0814117 Z" id="Fill-10" fill="#231F20"></path>
                    <path d="M31.2070024,24.06901 C29.4074187,24.0641826 28.0985052,23.0093969 28.0972983,21.5184216 C28.0985052,20.0284807 29.4074187,18.973695 31.2070024,18.9676608 C33.011586,18.973695 34.3210167,20.0284807 34.3210167,21.5184216 C34.3210167,23.0093969 33.011586,24.0641826 31.2070024,24.06901 M31.2070024,16.8241252 C28.1107461,16.8325731 25.7337715,18.7890472 25.7301509,21.5184216 C25.7337715,24.2452099 28.1107461,26.2028908 31.2070024,26.2101319 C34.3080862,26.2028908 36.6826471,24.2452099 36.6886814,21.5184216 C36.6826471,18.7890472 34.3080862,16.8325731 31.2070024,16.8241252" id="Fill-12" fill="#231F20"></path>
                    <mask id="mask-4" fill="white">
                        <use xlink:href="#path-3"></use>
                    </mask>
                    <g id="Clip-15"></g>
                    <polygon id="Fill-14" fill="#231F20" mask="url(#mask-4)" points="34.4357018 16.9370862 36.9826697 16.9370862 36.9826697 4.96032031 34.4357018 4.96032031"></polygon>
                    <path d="M67.6769683,15.9747106 C65.9046249,16.3988317 63.7726406,16.6491666 61.5913479,16.6455461 L59.1319628,16.6455461 L59.1319628,13.0570678 L60.5339761,13.0570678 C62.2708037,13.0570678 63.9669432,13.0570678 65.7801471,12.9001775 L65.8973838,12.8869022 L65.8973838,10.9268076 L65.7546309,10.942669 C63.9572884,11.0957664 62.2708037,11.0957664 60.5339761,11.0957664 L59.1319628,11.0957664 L59.1319628,7.88899715 L66.1730625,7.88899715 L66.1730625,5.92873014 L56.6127524,5.92873014 L56.6127524,18.6516733 L61.5913479,18.6516733 C64.0412506,18.6516733 66.3275392,18.3358238 68.0816075,17.8837728 L68.2024647,17.8484293 L67.8105837,15.9419533 L67.6769683,15.9747106 Z M69.7198183,23.7056106 L72.2619587,23.7056106 L72.2619587,4.96014791 L69.7198183,4.96014791 L69.7198183,23.7056106 Z" id="Fill-16" fill="#231F20" mask="url(#mask-4)"></path>
                    <polygon id="Fill-17" fill="#231F20" mask="url(#mask-4)" points="51.3522544 7.82689616 51.3522544 18.6857754 51.4550089 18.6857754 51.4550089 18.6906028 53.2563167 18.6906028 53.2563167 18.6857754 53.3609677 18.6857754 53.3609677 7.82689616"></polygon>
                    <polygon id="Fill-18" fill="#231F20" mask="url(#mask-4)" points="46.0668263 17.5057533 43.9536343 17.5057533 43.9536343 17.7124692 43.9536343 22.9510543 53.1536139 22.9510543 53.3610195 22.9510543 53.3610195 21.2728451 46.0668263 21.2728451"></polygon>
                    <path d="M44.8820285,12.3656298 C44.8820285,13.6305795 44.1129211,14.6258849 43.1315807,14.6295054 C42.1617917,14.6258849 41.3750988,13.6098907 41.3750988,12.3656298 C41.3750988,11.1199896 42.1617917,10.1053747 43.1296843,10.1017541 C44.1129211,10.1053747 44.8820285,11.0980939 44.8820285,12.3656298 M46.794194,13.2769729 L48.0815566,13.2769729 L48.0815566,18.1426418 L48.1862077,18.1426418 L48.1862077,18.1462623 L50.0757878,18.1462623 L50.0757878,18.1426418 L50.0878563,18.1426418 L50.0878563,7.82684444 L48.0815566,7.82684444 L48.0815566,11.5842815 L46.8190206,11.5842815 C46.5481692,9.75297487 45.0618489,8.32510052 43.1296843,8.32510052 C40.9194272,8.32630737 39.3851778,10.1698549 39.3796607,12.3656298 C39.3851778,14.558991 40.9194272,16.3999524 43.1296843,16.4049522 C45.0071959,16.4097796 46.4774824,15.0548333 46.794194,13.2769729" id="Fill-19" fill="#231F20" mask="url(#mask-4)"></path>
                </g>
            </g>
        </g>
    </g>
</svg>