<svg xmlns="http://www.w3.org/2000/svg" width="24" height="24" viewBox="0 0 24 24">
    <g fill="none" fill-rule="evenodd">
        <g stroke="#000" stroke-width="1.3">
            <g>
                <g>
                    <g>
                        <g>
                            <g>
                                <path stroke-linecap="round" stroke-linejoin="round" d="M13.776 12.101L13.901 16.099" transform="translate(-540 -1530) translate(360 297) translate(0 1164) translate(0 60) translate(180 9) translate(4 4) rotate(-45 13.839 14.1)"/>
                                <path fill-rule="nonzero" d="M7.448 1.298c1.676 0 3.353.64 4.632 1.918 1.279 1.28 1.918 2.956 1.918 4.632 0 1.676-.64 3.353-1.918 4.632-1.28 1.279-2.956 1.918-4.632 1.918-1.676 0-3.353-.64-4.632-1.918C1.538 11.2.898 9.524.898 7.848c0-1.676.64-3.353 1.918-4.632 1.28-1.278 2.956-1.918 4.632-1.918z" transform="translate(-540 -1530) translate(360 297) translate(0 1164) translate(0 60) translate(180 9) translate(4 4)"/>
                            </g>
                        </g>
                    </g>
                </g>
            </g>
        </g>
    </g>
</svg>
