<?xml version="1.0" encoding="UTF-8"?>
<svg width="14px" height="14px" viewBox="0 0 14 14" version="1.1" xmlns="http://www.w3.org/2000/svg" xmlns:xlink="http://www.w3.org/1999/xlink">
    <title>1251E747-E405-4E83-8C10-B2AB8E4A30DF</title>
    <g id="GNB" stroke="none" stroke-width="1" fill="none" fill-rule="evenodd">
        <g transform="translate(-1134.000000, -560.000000)" fill="#F50D87" fill-rule="nonzero" id="rank_new">
            <g transform="translate(1134.000000, 560.000000)">
                <path d="M1.115,8.713 L1.115,5.269 L1.136,5.269 L3.124,8.713 L4.104,8.713 L4.104,3.911 L3.229,3.911 L3.229,7.103 L3.208,7.103 L1.353,3.911 L0.24,3.911 L0.24,8.713 L1.115,8.713 Z M7.713,8.713 L7.713,7.95 L5.578,7.95 L5.578,6.62 L7.209,6.62 L7.209,5.878 L5.578,5.878 L5.578,4.66 L7.664,4.66 L7.664,3.911 L4.584,3.911 L4.584,8.713 L7.713,8.713 Z M9.845,8.713 L10.748,5.367 L10.769,5.367 L11.623,8.713 L12.631,8.713 L13.786,3.911 L12.904,3.911 L12.127,7.313 L12.099,7.313 L11.203,3.911 L10.384,3.911 L9.474,7.313 L9.446,7.313 L8.683,3.911 L7.682,3.911 L8.844,8.713 L9.845,8.713 Z" id="NEW"></path>
            </g>
        </g>
    </g>
</svg>