<?xml version="1.0" encoding="UTF-8"?>
<svg width="36px" height="36px" viewBox="0 0 36 36" version="1.1" xmlns="http://www.w3.org/2000/svg" xmlns:xlink="http://www.w3.org/1999/xlink">
    <title>8426442A-FE33-427A-B098-26F87F8BE8BA</title>
    <g id="GNB" stroke="none" stroke-width="1" fill="none" fill-rule="evenodd">
        <g transform="translate(-1370.000000, -359.000000)" id="[Top]" stroke="#000000" stroke-width="1.656">
            <g transform="translate(106.000000, 320.000000)">
                <g id="top" transform="translate(220.000000, 32.000000)">
                    <g id="icon" transform="translate(1043.000000, 6.000000)">
                        <g id="icon_36_-profile_nor" transform="translate(0.500000, 0.700000)">
                            <path d="M19.096155,2.828 C20.8768477,2.828 22.4888792,3.5496252 23.6557289,4.71643382 C24.8225596,5.88322344 25.5442105,7.49517193 25.5442105,9.27579933 C25.5442105,11.056397 24.8225774,12.6683239 23.655835,13.8351105 C22.4890602,15.0019296 20.8771579,15.7235789 19.0967068,15.7235789 C17.3160063,15.7235789 15.7039708,15.0019553 14.5371184,13.8351503 C13.370284,12.6683634 12.6486316,11.0564189 12.6486316,9.27579933 C12.6486316,7.49519227 13.3702645,5.88326024 14.5370096,4.71647094 C15.7037871,3.54964917 17.3156945,2.828 19.096155,2.828 Z" id="Rounded-Rectangle-1369"></path>
                            <path d="M32.1928421,29.648 C32.1928421,24.0223694 27.9597039,19.4618947 19.0964211,19.4618947 C10.2331382,19.4618947 6,24.0223694 6,29.648" id="Oval" stroke-linecap="round"></path>
                        </g>
                    </g>
                </g>
            </g>
        </g>
    </g>
</svg>