<svg xmlns="http://www.w3.org/2000/svg" xmlns:xlink="http://www.w3.org/1999/xlink" width="50" height="50" viewBox="0 0 50 50">
    <defs>
        <path id="urrzr9ldsa" d="M1.22 28.055c1.474 1.473 2.947 1.473 5.156.737l21.77-11.215c1.255-.646 1.517-2.327.52-3.325L15.023.61c-.998-.999-2.68-.736-3.326.519L.484 22.9c-.737 2.209-.737 3.682.736 5.155z"/>
    </defs>
    <g fill="none" fill-rule="evenodd">
        <g>
            <g>
                <g>
                    <g>
                        <path d="M0 0H50V50H0z" transform="translate(-797 -543) translate(358 248) translate(2 276) translate(437 19)"/>
                        <g transform="translate(-797 -543) translate(358 248) translate(2 276) translate(437 19) translate(7.218 13.507)">
                            <mask id="qmp5wfohjb" fill="#fff">
                                <use xlink:href="#urrzr9ldsa"/>
                            </mask>
                            <use fill="#FFF" xlink:href="#urrzr9ldsa"/>
                            <path fill="#FF87B5" d="M-6.78 27.055c1.474 1.473 2.947 1.473 5.156.737l21.77-11.215c1.255-.646 1.517-2.327.52-3.325L7.023-.39c-.998-.999-2.68-.736-3.326.519L-7.516 21.9c-.737 2.209-.737 3.682.736 5.155z" mask="url(#qmp5wfohjb)"/>
                        </g>
                        <path stroke="#000" stroke-linecap="round" d="M8.438 41.562c1.473 1.473 2.946 1.473 5.156.737l21.77-11.215c1.254-.646 1.517-2.327.519-3.325L22.24 14.117c-.998-.998-2.679-.735-3.325.52L7.701 36.405c-.736 2.21-.736 3.683.737 5.156zM36.5 16.5l2.849-1.425c.648-.324.789-1.188.276-1.7h0c-.513-.512-.372-1.376.276-1.7l2.849-1.425" transform="translate(-797 -543) translate(358 248) translate(2 276) translate(437 19)"/>
                        <path stroke="#000" stroke-linecap="round" stroke-width="1.5" d="M46.333 18.667L46.594 18.667M27.365 1.958L27.625 1.958" transform="translate(-797 -543) translate(358 248) translate(2 276) translate(437 19)"/>
                        <path stroke="#000" stroke-linecap="round" d="M24 9.333L21.917 6.208M31.292 11.375L32.333 6.167M43.833 24.75L38.625 23.708" transform="translate(-797 -543) translate(358 248) translate(2 276) translate(437 19)"/>
                        <path stroke="#000" d="M25 17.083L25 36.458" transform="translate(-797 -543) translate(358 248) translate(2 276) translate(437 19)"/>
                        <path stroke="#000" stroke-linecap="round" d="M16.667 19.167L16.667 40.625" transform="translate(-797 -543) translate(358 248) translate(2 276) translate(437 19)"/>
                    </g>
                </g>
            </g>
        </g>
    </g>
</svg>
