<svg xmlns="http://www.w3.org/2000/svg" xmlns:xlink="http://www.w3.org/1999/xlink" width="50" height="50" viewBox="0 0 50 50">
    <defs>
        <path id="ii196k7cla" d="M1.457 11.028c1.926 1.934 5.047 1.966 7.012.072 1.966-1.894 2.05-5.014.188-7.01L4.999 0 1.414 4.015c-1.902 1.957-1.883 5.079.043 7.013z"/>
    </defs>
    <g fill="none" fill-rule="evenodd">
        <g>
            <g>
                <g>
                    <g transform="translate(-720 -543) translate(358 248) translate(2 276) translate(360 19)">
                        <path d="M0 0L50 0 50 50 0 50z"/>
                        <circle cx="24.75" cy="25.75" r="18.75" fill="#FFF"/>
                        <path fill="#FFF" stroke="#000" stroke-linecap="round" stroke-linejoin="round" d="M43.469 28.16c.183-1.043.277-2.1.281-3.16 0-10.355-8.395-18.75-18.75-18.75S6.25 14.645 6.25 25 14.645 43.75 25 43.75c1.438 0 2.833-.158 4.167-.462" transform="rotate(-16 25 25)"/>
                        <path stroke="#000" stroke-linecap="round" stroke-linejoin="round" stroke-width="2" d="M18.75 20.833L18.771 20.833M31.25 20.833L31.271 20.833"/>
                        <path stroke="#000" stroke-linecap="round" stroke-linejoin="round" d="M19.792 31.77c1.371-1.399 3.248-2.188 5.208-2.188s3.837.79 5.208 2.189"/>
                        <g transform="translate(34.417 25.389)">
                            <mask id="vne8y6ogcb" fill="#fff">
                                <use xlink:href="#ii196k7cla"/>
                            </mask>
                            <use fill="#FFF" stroke="#000" stroke-linecap="round" stroke-linejoin="round" xlink:href="#ii196k7cla"/>
                            <path fill="#9AD0F7" d="M-.943 13.428c1.926 1.934 5.047 1.966 7.012.072 1.966-1.894 2.05-5.014.188-7.01L2.599 2.4-.986 6.415c-1.902 1.957-1.883 5.079.043 7.013z" mask="url(#vne8y6ogcb)"/>
                            <path stroke="#000" stroke-linecap="round" stroke-linejoin="round" d="M1.457 11.028c1.926 1.934 5.047 1.966 7.012.072 1.966-1.894 2.05-5.014.188-7.01L4.999 0 1.414 4.015c-1.902 1.957-1.883 5.079.043 7.013z"/>
                        </g>
                    </g>
                </g>
            </g>
        </g>
    </g>
</svg>
