<svg xmlns="http://www.w3.org/2000/svg" width="24" height="24" viewBox="0 0 24 24">
    <g fill="none" fill-rule="evenodd">
        <g fill="#CCC" fill-rule="nonzero">
            <g>
                <g>
                    <g>
                        <g>
                            <g>
                                <g>
                                    <g>
                                        <path d="M25.169 11.346c-.074-.226-.272-.392-.51-.426l-6.697-.963-2.995-6.008c-.106-.214-.326-.349-.567-.349-.24 0-.46.135-.567.35l-2.995 6.007-6.696.963c-.239.034-.437.2-.511.426-.074.227-.012.476.16.643l4.845 4.676-1.143 6.603c-.041.235.057.472.251.612.195.14.453.159.667.048l5.989-3.117 5.989 3.117c.093.048.194.072.294.072.132 0 .262-.04.372-.12.195-.14.293-.377.252-.612l-1.144-6.603 4.846-4.676c.172-.167.234-.416.16-.643z" transform="translate(-587 -249) translate(338) translate(22) translate(32 101) translate(0 77) translate(88.6 22) translate(0 45) translate(104 1.6)"/>
                                    </g>
                                </g>
                            </g>
                        </g>
                    </g>
                </g>
            </g>
        </g>
    </g>
</svg>
