<?xml version="1.0" encoding="UTF-8"?>
<svg width="16px" height="15px" viewBox="0 0 16 15" version="1.1" xmlns="http://www.w3.org/2000/svg" xmlns:xlink="http://www.w3.org/1999/xlink">
    <title>C42422A8-AB6A-4C95-9D1A-E123B1011923</title>
    <g id="02_검색결과" stroke="none" stroke-width="1" fill="none" fill-rule="evenodd">
        <g id="02_홈메인_03_검색_02_검색결과_05_포토,동영상후기_02_상세_02_복수이미지" transform="translate(-976.000000, -412.000000)" fill="#000000" fill-rule="nonzero">
            <g id="[popup]" transform="translate(437.000000, 322.000000)">
                <g id="리뷰" transform="translate(146.000000, 89.000000)">
                    <g id="ic_star_on" transform="translate(392.000000, 0.000000)">
                        <path d="M16.6921413,6.65610357 C16.6389851,6.49883909 16.4975367,6.38425697 16.3272802,6.36048342 L11.5443699,5.69259443 L9.40534627,1.52782224 C9.32919795,1.37956333 9.17207988,1.28571429 9.0000154,1.28571429 C8.82798105,1.28571429 8.67083285,1.37959229 8.59468453,1.52782224 L6.45554037,5.69262338 L1.67272044,6.36048342 C1.502464,6.38425697 1.36101555,6.49886805 1.30785938,6.65610357 C1.25467307,6.81333909 1.29903015,6.98595068 1.42221747,7.1013436 L4.88303377,10.3432041 L4.06616444,14.9207847 C4.03708525,15.0837247 4.10681505,15.2484311 4.24600346,15.3455812 C4.38516174,15.4427313 4.56964138,15.4555592 4.72202843,15.3786499 L8.99998526,13.2174288 L13.2778216,15.3786788 C13.3439654,15.412095 13.4161662,15.4285714 13.4881259,15.4285714 C13.5818423,15.4285714 13.6751368,15.4005991 13.7538465,15.3456101 C13.8930349,15.2484311 13.9627647,15.0837536 13.9336855,14.9207847 L13.1165752,10.3432041 L16.5777531,7.10137255 C16.7009705,6.98595068 16.7453276,6.81333909 16.6921413,6.65610357 Z" id="Path-Copy-2"></path>
                    </g>
                </g>
            </g>
        </g>
    </g>
</svg>