<svg xmlns="http://www.w3.org/2000/svg" width="38" height="38" viewBox="0 0 38 38">
    <g fill="none" fill-rule="evenodd">
        <g fill="#CCC" fill-rule="nonzero">
            <g>
                <g>
                    <g>
                        <path d="M31.963 14.873c-.09-.29-.328-.5-.615-.544l-8.06-1.227-3.605-7.657C19.555 5.173 19.29 5 19 5c-.29 0-.555.173-.683.445l-3.605 7.657-8.06 1.227c-.287.044-.525.255-.615.544-.09.289-.015.606.193.818l5.832 5.96-1.376 8.415c-.05.3.068.603.303.781.234.179.545.203.802.061L19 26.935l7.209 3.973c.111.062.233.092.354.092.158 0 .315-.051.448-.153.235-.178.352-.48.303-.78l-1.377-8.416 5.833-5.96c.208-.212.282-.53.193-.818z" transform="translate(-1317 -377) translate(1010 128) translate(155 247) translate(152 2)"/>
                    </g>
                </g>
            </g>
        </g>
    </g>
</svg>
