<?xml version="1.0" encoding="UTF-8"?>
<svg width="14px" height="14px" viewBox="0 0 14 14" version="1.1" xmlns="http://www.w3.org/2000/svg" xmlns:xlink="http://www.w3.org/1999/xlink">
    <title>FCCDF754-0468-45F1-A1C1-32741F518852</title>
    <g id="04_딜상품" stroke="none" stroke-width="1" fill="none" fill-rule="evenodd">
        <g id="06_상품카테고리_02_상품상세_04_딜상품_03_상품평_02_드롭다운시" transform="translate(-522.000000, -1521.000000)">
            <rect fill="#FFFFFF" x="0" y="0" width="1920" height="4813"></rect>
            <g id="[contents]" transform="translate(338.000000, 189.000000)">
                <g id="02_하단" transform="translate(22.000000, 1082.000000)">
                    <g id="01_별점&amp;포토리뷰" fill="#FFFFFF" transform="translate(32.000000, 171.000000)">
                        <g id="총점" transform="translate(0.000000, 77.000000)">
                            <rect id="bg" x="0" y="0" width="300" height="130"></rect>
                        </g>
                    </g>
                    <g id="input/dropdown/open" transform="translate(32.000000, 101.000000)">
                        <rect id="Rectangle" stroke="#333333" fill="#FFFFFF" x="0.5" y="0.5" width="799" height="712" rx="6"></rect>
                        <g id="01" transform="translate(16.000000, 103.000000)" fill="#000000" fill-rule="nonzero">
                            <g id="별점" transform="translate(72.000000, 43.000000)">
                                <g id="rating/review/small" transform="translate(0.000000, 1.000000)">
                                    <g id="star" transform="translate(0.000000, 2.000000)">
                                        <g id="icon_16/star/nor" transform="translate(42.000000, 0.000000)">
                                            <path d="M12.9827766,5.36683169 C12.9414329,5.23895502 12.8314174,5.14578471 12.6989957,5.12645369 L8.97895436,4.58337223 L7.31526932,1.19686556 C7.25604285,1.0763116 7.1338399,1 7.00001198,1 C6.86620749,1 6.74398111,1.07633514 6.68475463,1.19686556 L5.02097584,4.58339578 L1.30100479,5.12645369 C1.16858311,5.14578471 1.05856765,5.23897857 1.01722396,5.36683169 C0.975856833,5.49468482 1.01035678,5.6350407 1.10616914,5.7288703 L3.79791515,8.36492858 L3.16257235,12.0871027 C3.13995519,12.2195943 3.19418949,12.3535222 3.30244714,12.432518 C3.41068135,12.5115138 3.55416552,12.5219446 3.67268878,12.4594072 L6.99998854,10.7020507 L10.3271946,12.4594308 C10.3786398,12.4866025 10.434796,12.5 10.4907646,12.5 C10.5636551,12.5 10.6362175,12.4772549 10.6974362,12.4325416 C10.8056938,12.3535222 10.8599281,12.2196179 10.837311,12.0871027 L10.2017807,8.36492858 L12.8938079,5.72889384 C12.9896437,5.6350407 13.0241437,5.49468482 12.9827766,5.36683169 Z" id="Path-Copy-2"></path>
                                        </g>
                                    </g>
                                </g>
                            </g>
                        </g>
                    </g>
                </g>
            </g>
        </g>
    </g>
</svg>