<svg xmlns="http://www.w3.org/2000/svg" width="20" height="20" viewBox="0 0 20 20">
    <g fill="none" fill-rule="evenodd">
        <g fill="#000" fill-rule="nonzero">
            <g>
                <g>
                    <path d="M18.476 8.076c-.059-.178-.215-.308-.402-.335l-5.27-.755-2.357-4.712C10.363 2.106 10.19 2 10 2s-.363.106-.447.274L7.196 6.986l-5.27.755c-.187.027-.343.157-.402.335-.058.177-.01.373.126.503l3.814 3.668-.9 5.179c-.032.184.044.37.198.48.153.11.356.125.524.038L10 15.499l4.714 2.445c.072.037.152.056.231.056.104 0 .206-.032.293-.094.153-.11.23-.296.198-.48l-.9-5.18L18.35 8.58c.135-.13.184-.326.126-.503z" transform="translate(-980 -241) translate(360 189) translate(620 52)"/>
                </g>
            </g>
        </g>
    </g>
</svg>
