<?xml version="1.0" encoding="UTF-8"?>
<svg width="80px" height="80px" viewBox="0 0 80 80" version="1.1" xmlns="http://www.w3.org/2000/svg" xmlns:xlink="http://www.w3.org/1999/xlink">
    <title>839A9D94-6C03-4F41-8C57-6D3267E73CF8</title>
    <g id="01_주문서" stroke="none" stroke-width="1" fill="none" fill-rule="evenodd" stroke-linecap="round" stroke-linejoin="round">
        <g id="07_주문결제_02_주문완료_01_단일배송지" transform="translate(-140.000000, -121.000000)" stroke="#999999">
            <g id="[contents]" transform="translate(0.000000, 121.000000)">
                <g id="icon-" transform="translate(151.000000, 7.000000)">
                    <path d="M7.92558582,17 L50.0744142,17 C52.143227,17 53.8706855,18.5775404 54.057987,20.637857 L57.6034415,59.637857 C57.8034476,61.8379235 56.1820782,63.7835668 53.9820117,63.9835728 C53.8616077,63.9945186 53.7407693,64 53.6198687,64 L4.38013128,64 C2.17099228,64 0.380131279,62.209139 0.380131279,60 C0.380131279,59.8790994 0.385612631,59.7582611 0.396558453,59.637857 L3.942013,20.637857 C4.12931451,18.5775404 5.85677301,17 7.92558582,17 Z" id="Rectangle" stroke-width="3"></path>
                    <polyline id="Path-2" stroke-width="3.2" points="21 40.6390546 27.1638652 46 38 35"></polyline>
                    <path d="M15,22 L15,14.0979021 C15,5.75569888 21.2680135,0 29,0 C36.7319865,0 43,5.75569888 43,14.0979021 L43,22" id="Path" stroke-width="3"></path>
                </g>
            </g>
        </g>
    </g>
</svg>