<?xml version="1.0" encoding="UTF-8"?>
<svg width="56px" height="56px" viewBox="0 0 56 56" version="1.1" xmlns="http://www.w3.org/2000/svg" xmlns:xlink="http://www.w3.org/1999/xlink">
    <title>09134AA9-9F4E-49FE-8255-313DEC5BB2CB</title>
    <g id="01_장바구니" stroke="none" stroke-width="1" fill="none" fill-rule="evenodd" opacity="0.200000003">
        <g id="07_주문결제_03_장바구니_06_장바구니없음" transform="translate(-152.000000, -141.000000)" stroke="#000000" stroke-width="2">
            <g id="[contents]" transform="translate(0.000000, 141.000000)">
                <g id="icon" transform="translate(152.000000, 0.000000)">
                    <g id="icon_cart" transform="translate(1.000000, 6.000000)">
                        <path d="M15.3247651,37.2757315 C16.2772782,37.2757315 17.1409273,37.6618346 17.7664963,38.2850033 C18.3906696,38.9067818 18.77806,39.7650142 18.77806,40.7119398 C18.77806,41.6588655 18.3906696,42.5170978 17.7664963,43.1388764 C17.1409273,43.7620451 16.2772782,44.1481481 15.3247651,44.1481481 C14.3722521,44.1481481 13.5086029,43.7620451 12.883034,43.1388764 C12.2588606,42.5170978 11.8714703,41.6588655 11.8714703,40.7119398 C11.8714703,39.7650142 12.2588606,38.9067818 12.883034,38.2850033 C13.5086029,37.6618346 14.3722521,37.2757315 15.3247651,37.2757315 Z" id="Path" fill-rule="nonzero"></path>
                        <path d="M39.4084126,37.2757315 C40.3609256,37.2757315 41.2245748,37.6618346 41.8501437,38.2850033 C42.4743171,38.9067818 42.8617074,39.7650142 42.8617074,40.7119398 C42.8617074,41.6588655 42.4743171,42.5170978 41.8501437,43.1388764 C41.2245748,43.7620451 40.3609256,44.1481481 39.4084126,44.1481481 C38.4558996,44.1481481 37.5922504,43.7620451 36.9666815,43.1388764 C36.3425081,42.5170978 35.9551177,41.6588655 35.9551177,40.7119398 C35.9551177,39.7650142 36.3425081,38.9067818 36.9666815,38.2850033 C37.5922504,37.6618346 38.4558996,37.2757315 39.4084126,37.2757315 Z" id="Path" fill-rule="nonzero"></path>
                        <path d="M0,0 L7.83342718,0 C9.15891058,-4.19878731e-14 10.2334272,1.0745166 10.2334272,2.4 L10.2334272,26.1929734 C10.2334272,28.8439402 12.3824604,30.9929734 15.0334272,30.9929734 L42.4059353,30.9929734 C44.5269636,30.9929734 46.3965416,29.6008793 47.0045169,27.568854 L52.0760984,10.6181951 C52.4560373,9.3483319 51.7346111,8.010903 50.4647479,7.63096408 C50.2415383,7.56418052 50.0097937,7.53025488 49.7768076,7.53025488 L11.2779776,7.53025488 L11.2779776,7.53025488" id="Path-4" stroke-linecap="round" stroke-linejoin="round"></path>
                    </g>
                </g>
            </g>
        </g>
    </g>
</svg>