<?xml version="1.0" encoding="UTF-8"?>
<svg width="80px" height="80px" viewBox="0 0 80 80" version="1.1" xmlns="http://www.w3.org/2000/svg" xmlns:xlink="http://www.w3.org/1999/xlink">
    <title>7908E3AA-5328-44DB-9942-16DEE90A68EC</title>
    <g id="01_주문서" stroke="none" stroke-width="1" fill="none" fill-rule="evenodd">
        <g id="07_주문결제_02_주문완료_06_주문실패" transform="translate(-140.000000, -121.000000)">
            <g id="[contents]" transform="translate(16.000000, 121.000000)">
                <g id="icon-" transform="translate(135.000000, 7.000000)">
                    <path d="M7.92558582,17 L50.0744142,17 C52.143227,17 53.8706855,18.5775404 54.057987,20.637857 L57.6034415,59.637857 C57.8034476,61.8379235 56.1820782,63.7835668 53.9820117,63.9835728 C53.8616077,63.9945186 53.7407693,64 53.6198687,64 L4.38013128,64 C2.17099228,64 0.380131279,62.209139 0.380131279,60 C0.380131279,59.8790994 0.385612631,59.7582611 0.396558453,59.637857 L3.942013,20.637857 C4.12931451,18.5775404 5.85677301,17 7.92558582,17 Z" id="Rectangle" stroke="#999999" stroke-width="3" stroke-linecap="round" stroke-linejoin="round"></path>
                    <path d="M15,22 L15,14.0979021 C15,5.75569888 21.2680135,0 29,0 C36.7319865,0 43,5.75569888 43,14.0979021 L43,22" id="Path" stroke="#999999" stroke-width="3" stroke-linecap="round" stroke-linejoin="round"></path>
                    <rect id="Rectangle" fill="#999999" x="27.5" y="31" width="3" height="14" rx="1.5"></rect>
                    <circle id="Oval" fill="#999999" cx="29" cy="49" r="2"></circle>
                </g>
            </g>
        </g>
    </g>
</svg>